<?xml version="1.0" encoding="UTF-8"?><svg xmlns="http://www.w3.org/2000/svg" width="400" height="400"><g transform="translate(88.88888888888889 173.91304347826087) scale(1 -1) rotate(0)" stroke-width="0.3px" stroke-linecap="round" stroke="#000"><g fill="#f00"><path d="m -8 0 a 8 8 0 0 1 16 0 l 0 128 a 8 8 0 0 1 -16 0 l 0 -128 z m 4 -16 m 0 16 a 4 4 0 0 0 8 0 4 4 0 0 0 -8 0 m 0 16 m 0 16 m 0 16 m 0 16 m 0 16 m 0 16 m 0 16 m 0 16 a 4 4 0 0 0 8 0 4 4 0 0 0 -8 0" transform="rotate(0) translate(0 -65.64587924944345) rotate(218.57142857142856)" opacity="0.5"></path><path d="m -8 0 a 8 8 0 0 1 16 0 l 0 128 a 8 8 0 0 1 -16 0 l 0 -128 z m 4 -16 m 0 16 a 4 4 0 0 0 8 0 4 4 0 0 0 -8 0 m 0 16 m 0 16 m 0 16 m 0 16 m 0 16 m 0 16 m 0 16 m 0 16 a 4 4 0 0 0 8 0 4 4 0 0 0 -8 0" transform="rotate(0) translate(0 -65.64587924944345) rotate(218.57142857142856) translate(0 128) rotate(51.42857142857143)" opacity="0.5"></path><path d="m -8 0 a 8 8 0 0 1 16 0 l 0 128 a 8 8 0 0 1 -16 0 l 0 -128 z m 4 -16 m 0 16 a 4 4 0 0 0 8 0 4 4 0 0 0 -8 0 m 0 16 m 0 16 m 0 16 m 0 16 m 0 16 m 0 16 m 0 16 m 0 16 a 4 4 0 0 0 8 0 4 4 0 0 0 -8 0" transform="rotate(0) translate(0 -65.64587924944345) rotate(218.57142857142856) translate(0 128) rotate(51.42857142857143) translate(0 128) rotate(51.42857142857143)" opacity="0.5"></path><path d="m -8 0 a 8 8 0 0 1 16 0 l 0 128 a 8 8 0 0 1 -16 0 l 0 -128 z m 4 -16 m 0 16 a 4 4 0 0 0 8 0 4 4 0 0 0 -8 0 m 0 16 m 0 16 m 0 16 m 0 16 m 0 16 m 0 16 m 0 16 m 0 16 a 4 4 0 0 0 8 0 4 4 0 0 0 -8 0" transform="rotate(51.42857142857143) translate(0 -65.64587924944345) rotate(218.57142857142856) translate(0 128) rotate(51.42857142857143) translate(0 128) rotate(-128.57142857142856)" opacity="0.5"></path><path d="m -8 0 a 8 8 0 0 1 16 0 l 0 128 a 8 8 0 0 1 -16 0 l 0 -128 z m 4 -16 m 0 16 a 4 4 0 0 0 8 0 4 4 0 0 0 -8 0 m 0 16 m 0 16 m 0 16 m 0 16 m 0 16 m 0 16 m 0 16 m 0 16 a 4 4 0 0 0 8 0 4 4 0 0 0 -8 0" transform="rotate(102.85714285714286) translate(0 -65.64587924944345) rotate(218.57142857142856) translate(0 128) rotate(-77.14285714285715)" opacity="0.5"></path><path d="m -8 0 a 8 8 0 0 1 16 0 l 0 128 a 8 8 0 0 1 -16 0 l 0 -128 z m 4 -16 m 0 16 a 4 4 0 0 0 8 0 4 4 0 0 0 -8 0 m 0 16 m 0 16 m 0 16 m 0 16 m 0 16 m 0 16 m 0 16 m 0 16 a 4 4 0 0 0 8 0 4 4 0 0 0 -8 0" transform="rotate(154.28571428571428) translate(0 -65.64587924944345) rotate(12.857142857142858)" opacity="0.5"></path><path d="m -8 0 a 8 8 0 0 1 16 0 l 0 128 a 8 8 0 0 1 -16 0 l 0 -128 z m 4 -16 m 0 16 a 4 4 0 0 0 8 0 4 4 0 0 0 -8 0 m 0 16 m 0 16 m 0 16 m 0 16 m 0 16 m 0 16 m 0 16 m 0 16 a 4 4 0 0 0 8 0 4 4 0 0 0 -8 0" transform="rotate(154.28571428571428) translate(0 -65.64587924944345) rotate(141.42857142857144)" opacity="0.5"></path></g><g fill="#abc"><path d="m -8 0 a 8 8 0 0 1 16 0 l 0 128 a 8 8 0 0 1 -16 0 l 0 -128 z m 4 -16 m 0 16 a 4 4 0 0 0 8 0 4 4 0 0 0 -8 0 m 0 16 m 0 16 m 0 16 m 0 16 m 0 16 m 0 16 m 0 16 m 0 16 a 4 4 0 0 0 8 0 4 4 0 0 0 -8 0" transform="rotate(0) translate(0 -65.64587924944345) rotate(12.857142857142858)" opacity="0.5"></path><path d="m -8 0 a 8 8 0 0 1 16 0 l 0 128 a 8 8 0 0 1 -16 0 l 0 -128 z m 4 -16 m 0 16 a 4 4 0 0 0 8 0 4 4 0 0 0 -8 0 m 0 16 m 0 16 m 0 16 m 0 16 m 0 16 m 0 16 m 0 16 m 0 16 a 4 4 0 0 0 8 0 4 4 0 0 0 -8 0" transform="rotate(51.42857142857143) translate(0 -65.64587924944345) rotate(12.857142857142858)" opacity="0.5"></path><path d="m -8 0 a 8 8 0 0 1 16 0 l 0 128 a 8 8 0 0 1 -16 0 l 0 -128 z m 4 -16 m 0 16 a 4 4 0 0 0 8 0 4 4 0 0 0 -8 0 m 0 16 m 0 16 m 0 16 m 0 16 m 0 16 m 0 16 m 0 16 m 0 16 a 4 4 0 0 0 8 0 4 4 0 0 0 -8 0" transform="rotate(51.42857142857143) translate(0 -65.64587924944345) rotate(218.57142857142856)" opacity="0.5"></path><path d="m -8 0 a 8 8 0 0 1 16 0 l 0 128 a 8 8 0 0 1 -16 0 l 0 -128 z m 4 -16 m 0 16 a 4 4 0 0 0 8 0 4 4 0 0 0 -8 0 m 0 16 m 0 16 m 0 16 m 0 16 m 0 16 m 0 16 m 0 16 m 0 16 a 4 4 0 0 0 8 0 4 4 0 0 0 -8 0" transform="rotate(51.42857142857143) translate(0 -65.64587924944345) rotate(141.42857142857144)" opacity="0.5"></path><path d="m -8 0 a 8 8 0 0 1 16 0 l 0 128 a 8 8 0 0 1 -16 0 l 0 -128 z m 4 -16 m 0 16 a 4 4 0 0 0 8 0 4 4 0 0 0 -8 0 m 0 16 m 0 16 m 0 16 m 0 16 m 0 16 m 0 16 m 0 16 m 0 16 a 4 4 0 0 0 8 0 4 4 0 0 0 -8 0" transform="rotate(51.42857142857143) translate(0 -65.64587924944345) rotate(218.57142857142856) translate(0 128) rotate(51.42857142857143)" opacity="0.5"></path><path d="m -8 0 a 8 8 0 0 1 16 0 l 0 128 a 8 8 0 0 1 -16 0 l 0 -128 z m 4 -16 m 0 16 a 4 4 0 0 0 8 0 4 4 0 0 0 -8 0 m 0 16 m 0 16 m 0 16 m 0 16 m 0 16 m 0 16 m 0 16 m 0 16 a 4 4 0 0 0 8 0 4 4 0 0 0 -8 0" transform="rotate(51.42857142857143) translate(0 -65.64587924944345) rotate(218.57142857142856) translate(0 128) rotate(-77.14285714285715)" opacity="0.5"></path><path d="m -8 0 a 8 8 0 0 1 16 0 l 0 128 a 8 8 0 0 1 -16 0 l 0 -128 z m 4 -16 m 0 16 a 4 4 0 0 0 8 0 4 4 0 0 0 -8 0 m 0 16 m 0 16 m 0 16 m 0 16 m 0 16 m 0 16 m 0 16 m 0 16 a 4 4 0 0 0 8 0 4 4 0 0 0 -8 0" transform="rotate(102.85714285714286) translate(0 -65.64587924944345) rotate(12.857142857142858)" opacity="0.5"></path><path d="m -8 0 a 8 8 0 0 1 16 0 l 0 128 a 8 8 0 0 1 -16 0 l 0 -128 z m 4 -16 m 0 16 a 4 4 0 0 0 8 0 4 4 0 0 0 -8 0 m 0 16 m 0 16 m 0 16 m 0 16 m 0 16 m 0 16 m 0 16 m 0 16 a 4 4 0 0 0 8 0 4 4 0 0 0 -8 0" transform="rotate(102.85714285714286) translate(0 -65.64587924944345) rotate(218.57142857142856)" opacity="0.5"></path><path d="m -8 0 a 8 8 0 0 1 16 0 l 0 128 a 8 8 0 0 1 -16 0 l 0 -128 z m 4 -16 m 0 16 a 4 4 0 0 0 8 0 4 4 0 0 0 -8 0 m 0 16 m 0 16 m 0 16 m 0 16 m 0 16 m 0 16 m 0 16 m 0 16 a 4 4 0 0 0 8 0 4 4 0 0 0 -8 0" transform="rotate(102.85714285714286) translate(0 -65.64587924944345) rotate(141.42857142857144)" opacity="0.5"></path><path d="m -8 0 a 8 8 0 0 1 16 0 l 0 128 a 8 8 0 0 1 -16 0 l 0 -128 z m 4 -16 m 0 16 a 4 4 0 0 0 8 0 4 4 0 0 0 -8 0 m 0 16 m 0 16 m 0 16 m 0 16 m 0 16 m 0 16 m 0 16 m 0 16 a 4 4 0 0 0 8 0 4 4 0 0 0 -8 0" transform="rotate(205.71428571428572) translate(0 -65.64587924944345) rotate(12.857142857142858)" opacity="0.5"></path><path d="m -8 0 a 8 8 0 0 1 16 0 l 0 128 a 8 8 0 0 1 -16 0 l 0 -128 z m 4 -16 m 0 16 a 4 4 0 0 0 8 0 4 4 0 0 0 -8 0 m 0 16 m 0 16 m 0 16 m 0 16 m 0 16 m 0 16 m 0 16 m 0 16 a 4 4 0 0 0 8 0 4 4 0 0 0 -8 0" transform="rotate(257.14285714285717) translate(0 -65.64587924944345) rotate(12.857142857142858)" opacity="0.5"></path><path d="m -8 0 a 8 8 0 0 1 16 0 l 0 128 a 8 8 0 0 1 -16 0 l 0 -128 z m 4 -16 m 0 16 a 4 4 0 0 0 8 0 4 4 0 0 0 -8 0 m 0 16 m 0 16 m 0 16 m 0 16 m 0 16 m 0 16 m 0 16 m 0 16 a 4 4 0 0 0 8 0 4 4 0 0 0 -8 0" transform="rotate(308.57142857142856) translate(0 -65.64587924944345) rotate(12.857142857142858)" opacity="0.5"></path></g><g fill="#08f"></g><g fill="#80f"></g></g></svg>