<svg xmlns="http://www.w3.org/2000/svg" width="400" height="400"><g transform="translate(114.28571428571429 160) scale(1 -1) rotate(0)" stroke-width="0.3px" stroke-linecap="round" stroke="#000"><g fill="#08f"><path d="m -10 0 a 10 10 0 0 1 20 0 l 0 160 a 10 10 0 0 1 -20 0 l 0 -160 z m 5 -20 m 0 20 a 5 5 0 0 0 10 0 5 5 0 0 0 -10 0 m 0 20 m 0 20 m 0 20 m 0 20 m 0 20 m 0 20 m 0 20 m 0 20 a 5 5 0 0 0 10 0 5 5 0 0 0 -10 0" transform="rotate(0) translate(0 -84.11697793906137) rotate(18)" opacity="0.5"></path><path d="m -10 0 a 10 10 0 0 1 20 0 l 0 160 a 10 10 0 0 1 -20 0 l 0 -160 z m 5 -20 m 0 20 a 5 5 0 0 0 10 0 5 5 0 0 0 -10 0 m 0 20 m 0 20 m 0 20 m 0 20 m 0 20 m 0 20 m 0 20 m 0 20 a 5 5 0 0 0 10 0 5 5 0 0 0 -10 0" transform="rotate(0) translate(0 -84.11697793906137) rotate(234)" opacity="0.5"></path><path d="m -10 0 a 10 10 0 0 1 20 0 l 0 160 a 10 10 0 0 1 -20 0 l 0 -160 z m 5 -20 m 0 20 a 5 5 0 0 0 10 0 5 5 0 0 0 -10 0 m 0 20 m 0 20 m 0 20 m 0 20 m 0 20 m 0 20 m 0 20 m 0 20 a 5 5 0 0 0 10 0 5 5 0 0 0 -10 0" transform="rotate(0) translate(0 -84.11697793906137) rotate(234) translate(0 160) rotate(72)" opacity="0.5"></path><path d="m -10 0 a 10 10 0 0 1 20 0 l 0 160 a 10 10 0 0 1 -20 0 l 0 -160 z m 5 -20 m 0 20 a 5 5 0 0 0 10 0 5 5 0 0 0 -10 0 m 0 20 m 0 20 m 0 20 m 0 20 m 0 20 m 0 20 m 0 20 m 0 20 a 5 5 0 0 0 10 0 5 5 0 0 0 -10 0" transform="rotate(72) translate(0 -84.11697793906137) rotate(18)" opacity="0.5"></path><path d="m -10 0 a 10 10 0 0 1 20 0 l 0 160 a 10 10 0 0 1 -20 0 l 0 -160 z m 5 -20 m 0 20 a 5 5 0 0 0 10 0 5 5 0 0 0 -10 0 m 0 20 m 0 20 m 0 20 m 0 20 m 0 20 m 0 20 m 0 20 m 0 20 a 5 5 0 0 0 10 0 5 5 0 0 0 -10 0" transform="rotate(72) translate(0 -84.11697793906137) rotate(234)" opacity="0.5"></path><path d="m -10 0 a 10 10 0 0 1 20 0 l 0 160 a 10 10 0 0 1 -20 0 l 0 -160 z m 5 -20 m 0 20 a 5 5 0 0 0 10 0 5 5 0 0 0 -10 0 m 0 20 m 0 20 m 0 20 m 0 20 m 0 20 m 0 20 m 0 20 m 0 20 a 5 5 0 0 0 10 0 5 5 0 0 0 -10 0" transform="rotate(72) translate(0 -84.11697793906137) rotate(126)" opacity="0.5"></path><path d="m -10 0 a 10 10 0 0 1 20 0 l 0 160 a 10 10 0 0 1 -20 0 l 0 -160 z m 5 -20 m 0 20 a 5 5 0 0 0 10 0 5 5 0 0 0 -10 0 m 0 20 m 0 20 m 0 20 m 0 20 m 0 20 m 0 20 m 0 20 m 0 20 a 5 5 0 0 0 10 0 5 5 0 0 0 -10 0" transform="rotate(72) translate(0 -84.11697793906137) rotate(234) translate(0 160) rotate(-108)" opacity="0.5"></path><path d="m -10 0 a 10 10 0 0 1 20 0 l 0 160 a 10 10 0 0 1 -20 0 l 0 -160 z m 5 -20 m 0 20 a 5 5 0 0 0 10 0 5 5 0 0 0 -10 0 m 0 20 m 0 20 m 0 20 m 0 20 m 0 20 m 0 20 m 0 20 m 0 20 a 5 5 0 0 0 10 0 5 5 0 0 0 -10 0" transform="rotate(144) translate(0 -84.11697793906137) rotate(18)" opacity="0.5"></path><path d="m -10 0 a 10 10 0 0 1 20 0 l 0 160 a 10 10 0 0 1 -20 0 l 0 -160 z m 5 -20 m 0 20 a 5 5 0 0 0 10 0 5 5 0 0 0 -10 0 m 0 20 m 0 20 m 0 20 m 0 20 m 0 20 m 0 20 m 0 20 m 0 20 a 5 5 0 0 0 10 0 5 5 0 0 0 -10 0" transform="rotate(144) translate(0 -84.11697793906137) rotate(126)" opacity="0.5"></path><path d="m -10 0 a 10 10 0 0 1 20 0 l 0 160 a 10 10 0 0 1 -20 0 l 0 -160 z m 5 -20 m 0 20 a 5 5 0 0 0 10 0 5 5 0 0 0 -10 0 m 0 20 m 0 20 m 0 20 m 0 20 m 0 20 m 0 20 m 0 20 m 0 20 a 5 5 0 0 0 10 0 5 5 0 0 0 -10 0" transform="rotate(216) translate(0 -84.11697793906137) rotate(18)" opacity="0.5"></path><path d="m -10 0 a 10 10 0 0 1 20 0 l 0 160 a 10 10 0 0 1 -20 0 l 0 -160 z m 5 -20 m 0 20 a 5 5 0 0 0 10 0 5 5 0 0 0 -10 0 m 0 20 m 0 20 m 0 20 m 0 20 m 0 20 m 0 20 m 0 20 m 0 20 a 5 5 0 0 0 10 0 5 5 0 0 0 -10 0" transform="rotate(288) translate(0 -84.11697793906137) rotate(18)" opacity="0.5"></path></g></g></svg>