<svg xmlns="http://www.w3.org/2000/svg" width="400" height="400"><g transform="translate(88.88888888888889 235.29411764705884) scale(1 -1) rotate(0)" stroke-width="0.3px" stroke-linecap="round" stroke="#000"><g fill="#08f"><path d="m -6 0 a 6 6 0 0 1 12 0 l 0 96 a 6 6 0 0 1 -12 0 l 0 -96 z m 3 -12 m 0 12 a 3 3 0 0 0 6 0 3 3 0 0 0 -6 0 m 0 12 m 0 12 m 0 12 m 0 12 m 0 12 m 0 12 m 0 12 m 0 12 a 3 3 0 0 0 6 0 3 3 0 0 0 -6 0" transform="rotate(0) translate(0 -50.47018676343683) rotate(18)" opacity="0.5"></path><path d="m -6 0 a 6 6 0 0 1 12 0 l 0 96 a 6 6 0 0 1 -12 0 l 0 -96 z m 3 -12 m 0 12 a 3 3 0 0 0 6 0 3 3 0 0 0 -6 0 m 0 12 m 0 12 m 0 12 m 0 12 m 0 12 m 0 12 m 0 12 m 0 12 a 3 3 0 0 0 6 0 3 3 0 0 0 -6 0" transform="rotate(0) translate(0 -50.47018676343683) rotate(234)" opacity="0.5"></path><path d="m -6 0 a 6 6 0 0 1 12 0 l 0 96 a 6 6 0 0 1 -12 0 l 0 -96 z m 3 -12 m 0 12 a 3 3 0 0 0 6 0 3 3 0 0 0 -6 0 m 0 12 m 0 12 m 0 12 m 0 12 m 0 12 m 0 12 m 0 12 m 0 12 a 3 3 0 0 0 6 0 3 3 0 0 0 -6 0" transform="rotate(0) translate(0 -50.47018676343683) rotate(234) translate(0 96) rotate(72)" opacity="0.5"></path><path d="m -6 0 a 6 6 0 0 1 12 0 l 0 96 a 6 6 0 0 1 -12 0 l 0 -96 z m 3 -12 m 0 12 a 3 3 0 0 0 6 0 3 3 0 0 0 -6 0 m 0 12 m 0 12 m 0 12 m 0 12 m 0 12 m 0 12 m 0 12 m 0 12 a 3 3 0 0 0 6 0 3 3 0 0 0 -6 0" transform="rotate(72) translate(0 -50.47018676343683) rotate(18)" opacity="0.5"></path><path d="m -6 0 a 6 6 0 0 1 12 0 l 0 96 a 6 6 0 0 1 -12 0 l 0 -96 z m 3 -12 m 0 12 a 3 3 0 0 0 6 0 3 3 0 0 0 -6 0 m 0 12 m 0 12 m 0 12 m 0 12 m 0 12 m 0 12 m 0 12 m 0 12 a 3 3 0 0 0 6 0 3 3 0 0 0 -6 0" transform="rotate(72) translate(0 -50.47018676343683) rotate(234)" opacity="0.5"></path><path d="m -6 0 a 6 6 0 0 1 12 0 l 0 96 a 6 6 0 0 1 -12 0 l 0 -96 z m 3 -12 m 0 12 a 3 3 0 0 0 6 0 3 3 0 0 0 -6 0 m 0 12 m 0 12 m 0 12 m 0 12 m 0 12 m 0 12 m 0 12 m 0 12 a 3 3 0 0 0 6 0 3 3 0 0 0 -6 0" transform="rotate(72) translate(0 -50.47018676343683) rotate(126)" opacity="0.5"></path><path d="m -6 0 a 6 6 0 0 1 12 0 l 0 96 a 6 6 0 0 1 -12 0 l 0 -96 z m 3 -12 m 0 12 a 3 3 0 0 0 6 0 3 3 0 0 0 -6 0 m 0 12 m 0 12 m 0 12 m 0 12 m 0 12 m 0 12 m 0 12 m 0 12 a 3 3 0 0 0 6 0 3 3 0 0 0 -6 0" transform="rotate(72) translate(0 -50.47018676343683) rotate(234) translate(0 96) rotate(-108)" opacity="0.5"></path><path d="m -6 0 a 6 6 0 0 1 12 0 l 0 96 a 6 6 0 0 1 -12 0 l 0 -96 z m 3 -12 m 0 12 a 3 3 0 0 0 6 0 3 3 0 0 0 -6 0 m 0 12 m 0 12 m 0 12 m 0 12 m 0 12 m 0 12 m 0 12 m 0 12 a 3 3 0 0 0 6 0 3 3 0 0 0 -6 0" transform="rotate(144) translate(0 -50.47018676343683) rotate(18)" opacity="0.5"></path><path d="m -6 0 a 6 6 0 0 1 12 0 l 0 96 a 6 6 0 0 1 -12 0 l 0 -96 z m 3 -12 m 0 12 a 3 3 0 0 0 6 0 3 3 0 0 0 -6 0 m 0 12 m 0 12 m 0 12 m 0 12 m 0 12 m 0 12 m 0 12 m 0 12 a 3 3 0 0 0 6 0 3 3 0 0 0 -6 0" transform="rotate(144) translate(0 -50.47018676343683) rotate(234)" opacity="0.5"></path><path d="m -6 0 a 6 6 0 0 1 12 0 l 0 96 a 6 6 0 0 1 -12 0 l 0 -96 z m 3 -12 m 0 12 a 3 3 0 0 0 6 0 3 3 0 0 0 -6 0 m 0 12 m 0 12 m 0 12 m 0 12 m 0 12 m 0 12 m 0 12 m 0 12 a 3 3 0 0 0 6 0 3 3 0 0 0 -6 0" transform="rotate(144) translate(0 -50.47018676343683) rotate(126)" opacity="0.5"></path><path d="m -6 0 a 6 6 0 0 1 12 0 l 0 96 a 6 6 0 0 1 -12 0 l 0 -96 z m 3 -12 m 0 12 a 3 3 0 0 0 6 0 3 3 0 0 0 -6 0 m 0 12 m 0 12 m 0 12 m 0 12 m 0 12 m 0 12 m 0 12 m 0 12 a 3 3 0 0 0 6 0 3 3 0 0 0 -6 0" transform="rotate(144) translate(0 -50.47018676343683) rotate(126) translate(0 96) rotate(0)" opacity="0.5"></path><path d="m -6 0 a 6 6 0 0 1 12 0 l 0 96 a 6 6 0 0 1 -12 0 l 0 -96 z m 3 -12 m 0 12 a 3 3 0 0 0 6 0 3 3 0 0 0 -6 0 m 0 12 m 0 12 m 0 12 m 0 12 m 0 12 m 0 12 m 0 12 m 0 12 a 3 3 0 0 0 6 0 3 3 0 0 0 -6 0" transform="rotate(144) translate(0 -50.47018676343683) rotate(126) translate(0 96) rotate(0) translate(0 96) rotate(72)" opacity="0.5"></path><path d="m -6 0 a 6 6 0 0 1 12 0 l 0 96 a 6 6 0 0 1 -12 0 l 0 -96 z m 3 -12 m 0 12 a 3 3 0 0 0 6 0 3 3 0 0 0 -6 0 m 0 12 m 0 12 m 0 12 m 0 12 m 0 12 m 0 12 m 0 12 m 0 12 a 3 3 0 0 0 6 0 3 3 0 0 0 -6 0" transform="rotate(144) translate(0 -50.47018676343683) rotate(126) translate(0 96) rotate(0) translate(0 96) rotate(72) translate(0 96) rotate(-144)" opacity="0.5"></path><path d="m -6 0 a 6 6 0 0 1 12 0 l 0 96 a 6 6 0 0 1 -12 0 l 0 -96 z m 3 -12 m 0 12 a 3 3 0 0 0 6 0 3 3 0 0 0 -6 0 m 0 12 m 0 12 m 0 12 m 0 12 m 0 12 m 0 12 m 0 12 m 0 12 a 3 3 0 0 0 6 0 3 3 0 0 0 -6 0" transform="rotate(144) translate(0 -50.47018676343683) rotate(126) translate(0 96) rotate(0) translate(0 96) rotate(-72)" opacity="0.5"></path><path d="m -6 0 a 6 6 0 0 1 12 0 l 0 96 a 6 6 0 0 1 -12 0 l 0 -96 z m 3 -12 m 0 12 a 3 3 0 0 0 6 0 3 3 0 0 0 -6 0 m 0 12 m 0 12 m 0 12 m 0 12 m 0 12 m 0 12 m 0 12 m 0 12 a 3 3 0 0 0 6 0 3 3 0 0 0 -6 0" transform="rotate(144) translate(0 -50.47018676343683) rotate(126) translate(0 96) rotate(0) translate(0 96) rotate(-72) translate(0 96) rotate(144)" opacity="0.5"></path><path d="m -6 0 a 6 6 0 0 1 12 0 l 0 96 a 6 6 0 0 1 -12 0 l 0 -96 z m 3 -12 m 0 12 a 3 3 0 0 0 6 0 3 3 0 0 0 -6 0 m 0 12 m 0 12 m 0 12 m 0 12 m 0 12 m 0 12 m 0 12 m 0 12 a 3 3 0 0 0 6 0 3 3 0 0 0 -6 0" transform="rotate(144) translate(0 -50.47018676343683) rotate(126) translate(0 96) rotate(0) translate(0 96) rotate(-72) translate(0 96) rotate(-72)" opacity="0.5"></path><path d="m -6 0 a 6 6 0 0 1 12 0 l 0 96 a 6 6 0 0 1 -12 0 l 0 -96 z m 3 -12 m 0 12 a 3 3 0 0 0 6 0 3 3 0 0 0 -6 0 m 0 12 m 0 12 m 0 12 m 0 12 m 0 12 m 0 12 m 0 12 m 0 12 a 3 3 0 0 0 6 0 3 3 0 0 0 -6 0" transform="rotate(144) translate(0 -50.47018676343683) rotate(126) translate(0 96) rotate(0) translate(0 96) rotate(-72) translate(0 96) rotate(-108)" opacity="0.5"></path><path d="m -6 0 a 6 6 0 0 1 12 0 l 0 96 a 6 6 0 0 1 -12 0 l 0 -96 z m 3 -12 m 0 12 a 3 3 0 0 0 6 0 3 3 0 0 0 -6 0 m 0 12 m 0 12 m 0 12 m 0 12 m 0 12 m 0 12 m 0 12 m 0 12 a 3 3 0 0 0 6 0 3 3 0 0 0 -6 0" transform="rotate(144) translate(0 -50.47018676343683) rotate(126) translate(0 96) rotate(0) translate(0 96) rotate(-72) translate(0 96) rotate(-72) translate(0 96) rotate(-36)" opacity="0.5"></path><path d="m -6 0 a 6 6 0 0 1 12 0 l 0 96 a 6 6 0 0 1 -12 0 l 0 -96 z m 3 -12 m 0 12 a 3 3 0 0 0 6 0 3 3 0 0 0 -6 0 m 0 12 m 0 12 m 0 12 m 0 12 m 0 12 m 0 12 m 0 12 m 0 12 a 3 3 0 0 0 6 0 3 3 0 0 0 -6 0" transform="rotate(216) translate(0 -50.47018676343683) rotate(18)" opacity="0.5"></path><path d="m -6 0 a 6 6 0 0 1 12 0 l 0 96 a 6 6 0 0 1 -12 0 l 0 -96 z m 3 -12 m 0 12 a 3 3 0 0 0 6 0 3 3 0 0 0 -6 0 m 0 12 m 0 12 m 0 12 m 0 12 m 0 12 m 0 12 m 0 12 m 0 12 a 3 3 0 0 0 6 0 3 3 0 0 0 -6 0" transform="rotate(216) translate(0 -50.47018676343683) rotate(126)" opacity="0.5"></path><path d="m -6 0 a 6 6 0 0 1 12 0 l 0 96 a 6 6 0 0 1 -12 0 l 0 -96 z m 3 -12 m 0 12 a 3 3 0 0 0 6 0 3 3 0 0 0 -6 0 m 0 12 m 0 12 m 0 12 m 0 12 m 0 12 m 0 12 m 0 12 m 0 12 a 3 3 0 0 0 6 0 3 3 0 0 0 -6 0" transform="rotate(216) translate(0 -50.47018676343683) rotate(90)" opacity="0.5"></path><path d="m -6 0 a 6 6 0 0 1 12 0 l 0 96 a 6 6 0 0 1 -12 0 l 0 -96 z m 3 -12 m 0 12 a 3 3 0 0 0 6 0 3 3 0 0 0 -6 0 m 0 12 m 0 12 m 0 12 m 0 12 m 0 12 m 0 12 m 0 12 m 0 12 a 3 3 0 0 0 6 0 3 3 0 0 0 -6 0" transform="rotate(216) translate(0 -50.47018676343683) rotate(90) translate(0 96) rotate(-72)" opacity="0.5"></path><path d="m -6 0 a 6 6 0 0 1 12 0 l 0 96 a 6 6 0 0 1 -12 0 l 0 -96 z m 3 -12 m 0 12 a 3 3 0 0 0 6 0 3 3 0 0 0 -6 0 m 0 12 m 0 12 m 0 12 m 0 12 m 0 12 m 0 12 m 0 12 m 0 12 a 3 3 0 0 0 6 0 3 3 0 0 0 -6 0" transform="rotate(216) translate(0 -50.47018676343683) rotate(90) translate(0 96) rotate(36)" opacity="0.5"></path><path d="m -6 0 a 6 6 0 0 1 12 0 l 0 96 a 6 6 0 0 1 -12 0 l 0 -96 z m 3 -12 m 0 12 a 3 3 0 0 0 6 0 3 3 0 0 0 -6 0 m 0 12 m 0 12 m 0 12 m 0 12 m 0 12 m 0 12 m 0 12 m 0 12 a 3 3 0 0 0 6 0 3 3 0 0 0 -6 0" transform="rotate(216) translate(0 -50.47018676343683) rotate(126) translate(0 96) rotate(-36)" opacity="0.5"></path><path d="m -6 0 a 6 6 0 0 1 12 0 l 0 96 a 6 6 0 0 1 -12 0 l 0 -96 z m 3 -12 m 0 12 a 3 3 0 0 0 6 0 3 3 0 0 0 -6 0 m 0 12 m 0 12 m 0 12 m 0 12 m 0 12 m 0 12 m 0 12 m 0 12 a 3 3 0 0 0 6 0 3 3 0 0 0 -6 0" transform="rotate(216) translate(0 -50.47018676343683) rotate(126) translate(0 96) rotate(-36) translate(0 96) rotate(-36)" opacity="0.5"></path><path d="m -6 0 a 6 6 0 0 1 12 0 l 0 96 a 6 6 0 0 1 -12 0 l 0 -96 z m 3 -12 m 0 12 a 3 3 0 0 0 6 0 3 3 0 0 0 -6 0 m 0 12 m 0 12 m 0 12 m 0 12 m 0 12 m 0 12 m 0 12 m 0 12 a 3 3 0 0 0 6 0 3 3 0 0 0 -6 0" transform="rotate(216) translate(0 -50.47018676343683) rotate(126) translate(0 96) rotate(-36) translate(0 96) rotate(-36) translate(0 96) rotate(-36)" opacity="0.5"></path><path d="m -6 0 a 6 6 0 0 1 12 0 l 0 96 a 6 6 0 0 1 -12 0 l 0 -96 z m 3 -12 m 0 12 a 3 3 0 0 0 6 0 3 3 0 0 0 -6 0 m 0 12 m 0 12 m 0 12 m 0 12 m 0 12 m 0 12 m 0 12 m 0 12 a 3 3 0 0 0 6 0 3 3 0 0 0 -6 0" transform="rotate(216) translate(0 -50.47018676343683) rotate(126) translate(0 96) rotate(-36) translate(0 96) rotate(-72)" opacity="0.5"></path><path d="m -6 0 a 6 6 0 0 1 12 0 l 0 96 a 6 6 0 0 1 -12 0 l 0 -96 z m 3 -12 m 0 12 a 3 3 0 0 0 6 0 3 3 0 0 0 -6 0 m 0 12 m 0 12 m 0 12 m 0 12 m 0 12 m 0 12 m 0 12 m 0 12 a 3 3 0 0 0 6 0 3 3 0 0 0 -6 0" transform="rotate(216) translate(0 -50.47018676343683) rotate(126) translate(0 96) rotate(-36) translate(0 96) rotate(-72) translate(0 96) rotate(36)" opacity="0.5"></path><path d="m -6 0 a 6 6 0 0 1 12 0 l 0 96 a 6 6 0 0 1 -12 0 l 0 -96 z m 3 -12 m 0 12 a 3 3 0 0 0 6 0 3 3 0 0 0 -6 0 m 0 12 m 0 12 m 0 12 m 0 12 m 0 12 m 0 12 m 0 12 m 0 12 a 3 3 0 0 0 6 0 3 3 0 0 0 -6 0" transform="rotate(216) translate(0 -50.47018676343683) rotate(126) translate(0 96) rotate(-36) translate(0 96) rotate(-72) translate(0 96) rotate(-72)" opacity="0.5"></path><path d="m -6 0 a 6 6 0 0 1 12 0 l 0 96 a 6 6 0 0 1 -12 0 l 0 -96 z m 3 -12 m 0 12 a 3 3 0 0 0 6 0 3 3 0 0 0 -6 0 m 0 12 m 0 12 m 0 12 m 0 12 m 0 12 m 0 12 m 0 12 m 0 12 a 3 3 0 0 0 6 0 3 3 0 0 0 -6 0" transform="rotate(288) translate(0 -50.47018676343683) rotate(18)" opacity="0.5"></path></g></g></svg>