<svg xmlns="http://www.w3.org/2000/svg" width="400" height="400"><g transform="translate(200 200) scale(1 -1) rotate(0)" stroke-width="0.3px" stroke-linecap="round" stroke="#000"><g fill="#f00"><path d="m -5 0 a 5 5 0 0 1 10 0 l 0 70 a 5 5 0 0 1 -10 0 l 0 -70 z m 2.5 -10 m 0 10 a 2.5 2.5 0 0 0 5 0 2.5 2.5 0 0 0 -5 0 m 0 10 m 0 10 m 0 10 m 0 10 m 0 10 m 0 10 m 0 10 a 2.5 2.5 0 0 0 5 0 2.5 2.5 0 0 0 -5 0" transform="rotate(0) translate(0 168.3407020660446) rotate(102)" opacity="0.5"></path><path d="m -5 0 a 5 5 0 0 1 10 0 l 0 70 a 5 5 0 0 1 -10 0 l 0 -70 z m 2.5 -10 m 0 10 a 2.5 2.5 0 0 0 5 0 2.5 2.5 0 0 0 -5 0 m 0 10 m 0 10 m 0 10 m 0 10 m 0 10 m 0 10 m 0 10 a 2.5 2.5 0 0 0 5 0 2.5 2.5 0 0 0 -5 0" transform="rotate(-24) translate(0 168.3407020660446) rotate(102)" opacity="0.5"></path><path d="m -5 0 a 5 5 0 0 1 10 0 l 0 70 a 5 5 0 0 1 -10 0 l 0 -70 z m 2.5 -10 m 0 10 a 2.5 2.5 0 0 0 5 0 2.5 2.5 0 0 0 -5 0 m 0 10 m 0 10 m 0 10 m 0 10 m 0 10 m 0 10 m 0 10 a 2.5 2.5 0 0 0 5 0 2.5 2.5 0 0 0 -5 0" transform="rotate(-48) translate(0 168.3407020660446) rotate(102)" opacity="0.5"></path><path d="m -5 0 a 5 5 0 0 1 10 0 l 0 70 a 5 5 0 0 1 -10 0 l 0 -70 z m 2.5 -10 m 0 10 a 2.5 2.5 0 0 0 5 0 2.5 2.5 0 0 0 -5 0 m 0 10 m 0 10 m 0 10 m 0 10 m 0 10 m 0 10 m 0 10 a 2.5 2.5 0 0 0 5 0 2.5 2.5 0 0 0 -5 0" transform="rotate(-72) translate(0 168.3407020660446) rotate(102)" opacity="0.5"></path><path d="m -5 0 a 5 5 0 0 1 10 0 l 0 70 a 5 5 0 0 1 -10 0 l 0 -70 z m 2.5 -10 m 0 10 a 2.5 2.5 0 0 0 5 0 2.5 2.5 0 0 0 -5 0 m 0 10 m 0 10 m 0 10 m 0 10 m 0 10 m 0 10 m 0 10 a 2.5 2.5 0 0 0 5 0 2.5 2.5 0 0 0 -5 0" transform="rotate(-96) translate(0 168.3407020660446) rotate(102)" opacity="0.5"></path><path d="m -5 0 a 5 5 0 0 1 10 0 l 0 70 a 5 5 0 0 1 -10 0 l 0 -70 z m 2.5 -10 m 0 10 a 2.5 2.5 0 0 0 5 0 2.5 2.5 0 0 0 -5 0 m 0 10 m 0 10 m 0 10 m 0 10 m 0 10 m 0 10 m 0 10 a 2.5 2.5 0 0 0 5 0 2.5 2.5 0 0 0 -5 0" transform="rotate(-120) translate(0 168.3407020660446) rotate(102)" opacity="0.5"></path><path d="m -5 0 a 5 5 0 0 1 10 0 l 0 70 a 5 5 0 0 1 -10 0 l 0 -70 z m 2.5 -10 m 0 10 a 2.5 2.5 0 0 0 5 0 2.5 2.5 0 0 0 -5 0 m 0 10 m 0 10 m 0 10 m 0 10 m 0 10 m 0 10 m 0 10 a 2.5 2.5 0 0 0 5 0 2.5 2.5 0 0 0 -5 0" transform="rotate(-144) translate(0 168.3407020660446) rotate(102)" opacity="0.5"></path><path d="m -5 0 a 5 5 0 0 1 10 0 l 0 70 a 5 5 0 0 1 -10 0 l 0 -70 z m 2.5 -10 m 0 10 a 2.5 2.5 0 0 0 5 0 2.5 2.5 0 0 0 -5 0 m 0 10 m 0 10 m 0 10 m 0 10 m 0 10 m 0 10 m 0 10 a 2.5 2.5 0 0 0 5 0 2.5 2.5 0 0 0 -5 0" transform="rotate(-168) translate(0 168.3407020660446) rotate(102)" opacity="0.5"></path><path d="m -5 0 a 5 5 0 0 1 10 0 l 0 70 a 5 5 0 0 1 -10 0 l 0 -70 z m 2.5 -10 m 0 10 a 2.5 2.5 0 0 0 5 0 2.5 2.5 0 0 0 -5 0 m 0 10 m 0 10 m 0 10 m 0 10 m 0 10 m 0 10 m 0 10 a 2.5 2.5 0 0 0 5 0 2.5 2.5 0 0 0 -5 0" transform="rotate(-192) translate(0 168.3407020660446) rotate(102)" opacity="0.5"></path><path d="m -5 0 a 5 5 0 0 1 10 0 l 0 70 a 5 5 0 0 1 -10 0 l 0 -70 z m 2.5 -10 m 0 10 a 2.5 2.5 0 0 0 5 0 2.5 2.5 0 0 0 -5 0 m 0 10 m 0 10 m 0 10 m 0 10 m 0 10 m 0 10 m 0 10 a 2.5 2.5 0 0 0 5 0 2.5 2.5 0 0 0 -5 0" transform="rotate(-216) translate(0 168.3407020660446) rotate(102)" opacity="0.5"></path><path d="m -5 0 a 5 5 0 0 1 10 0 l 0 70 a 5 5 0 0 1 -10 0 l 0 -70 z m 2.5 -10 m 0 10 a 2.5 2.5 0 0 0 5 0 2.5 2.5 0 0 0 -5 0 m 0 10 m 0 10 m 0 10 m 0 10 m 0 10 m 0 10 m 0 10 a 2.5 2.5 0 0 0 5 0 2.5 2.5 0 0 0 -5 0" transform="rotate(-240) translate(0 168.3407020660446) rotate(102)" opacity="0.5"></path><path d="m -5 0 a 5 5 0 0 1 10 0 l 0 70 a 5 5 0 0 1 -10 0 l 0 -70 z m 2.5 -10 m 0 10 a 2.5 2.5 0 0 0 5 0 2.5 2.5 0 0 0 -5 0 m 0 10 m 0 10 m 0 10 m 0 10 m 0 10 m 0 10 m 0 10 a 2.5 2.5 0 0 0 5 0 2.5 2.5 0 0 0 -5 0" transform="rotate(-264) translate(0 168.3407020660446) rotate(102)" opacity="0.5"></path><path d="m -5 0 a 5 5 0 0 1 10 0 l 0 70 a 5 5 0 0 1 -10 0 l 0 -70 z m 2.5 -10 m 0 10 a 2.5 2.5 0 0 0 5 0 2.5 2.5 0 0 0 -5 0 m 0 10 m 0 10 m 0 10 m 0 10 m 0 10 m 0 10 m 0 10 a 2.5 2.5 0 0 0 5 0 2.5 2.5 0 0 0 -5 0" transform="rotate(-288) translate(0 168.3407020660446) rotate(102)" opacity="0.5"></path><path d="m -5 0 a 5 5 0 0 1 10 0 l 0 70 a 5 5 0 0 1 -10 0 l 0 -70 z m 2.5 -10 m 0 10 a 2.5 2.5 0 0 0 5 0 2.5 2.5 0 0 0 -5 0 m 0 10 m 0 10 m 0 10 m 0 10 m 0 10 m 0 10 m 0 10 a 2.5 2.5 0 0 0 5 0 2.5 2.5 0 0 0 -5 0" transform="rotate(-312) translate(0 168.3407020660446) rotate(102)" opacity="0.5"></path><path d="m -5 0 a 5 5 0 0 1 10 0 l 0 70 a 5 5 0 0 1 -10 0 l 0 -70 z m 2.5 -10 m 0 10 a 2.5 2.5 0 0 0 5 0 2.5 2.5 0 0 0 -5 0 m 0 10 m 0 10 m 0 10 m 0 10 m 0 10 m 0 10 m 0 10 a 2.5 2.5 0 0 0 5 0 2.5 2.5 0 0 0 -5 0" transform="rotate(-336) translate(0 168.3407020660446) rotate(102)" opacity="0.5"></path></g><g fill="#f80"><path d="m -5 0 a 5 5 0 0 1 10 0 l 0 70 a 5 5 0 0 1 -10 0 l 0 -70 z m 2.5 -10 m 0 10 a 2.5 2.5 0 0 0 5 0 2.5 2.5 0 0 0 -5 0 m 0 10 m 0 10 m 0 10 m 0 10 m 0 10 m 0 10 m 0 10 a 2.5 2.5 0 0 0 5 0 2.5 2.5 0 0 0 -5 0" transform="rotate(0) translate(0 168.3407020660446) rotate(-138)" opacity="0.5"></path><path d="m -5 0 a 5 5 0 0 1 10 0 l 0 70 a 5 5 0 0 1 -10 0 l 0 -70 z m 2.5 -10 m 0 10 a 2.5 2.5 0 0 0 5 0 2.5 2.5 0 0 0 -5 0 m 0 10 m 0 10 m 0 10 m 0 10 m 0 10 m 0 10 m 0 10 a 2.5 2.5 0 0 0 5 0 2.5 2.5 0 0 0 -5 0" transform="rotate(0) translate(0 168.3407020660446) rotate(-138) translate(0 70) rotate(144)" opacity="0.5"></path><path d="m -5 0 a 5 5 0 0 1 10 0 l 0 70 a 5 5 0 0 1 -10 0 l 0 -70 z m 2.5 -10 m 0 10 a 2.5 2.5 0 0 0 5 0 2.5 2.5 0 0 0 -5 0 m 0 10 m 0 10 m 0 10 m 0 10 m 0 10 m 0 10 m 0 10 a 2.5 2.5 0 0 0 5 0 2.5 2.5 0 0 0 -5 0" transform="rotate(0) translate(0 168.3407020660446) rotate(-138) translate(0 70) rotate(144) translate(0 70) rotate(144)" opacity="0.5"></path><path d="m -5 0 a 5 5 0 0 1 10 0 l 0 70 a 5 5 0 0 1 -10 0 l 0 -70 z m 2.5 -10 m 0 10 a 2.5 2.5 0 0 0 5 0 2.5 2.5 0 0 0 -5 0 m 0 10 m 0 10 m 0 10 m 0 10 m 0 10 m 0 10 m 0 10 a 2.5 2.5 0 0 0 5 0 2.5 2.5 0 0 0 -5 0" transform="rotate(0) translate(0 168.3407020660446) rotate(-138) translate(0 70) rotate(144) translate(0 70) rotate(144) translate(0 70) rotate(144)" opacity="0.5"></path><path d="m -5 0 a 5 5 0 0 1 10 0 l 0 70 a 5 5 0 0 1 -10 0 l 0 -70 z m 2.5 -10 m 0 10 a 2.5 2.5 0 0 0 5 0 2.5 2.5 0 0 0 -5 0 m 0 10 m 0 10 m 0 10 m 0 10 m 0 10 m 0 10 m 0 10 a 2.5 2.5 0 0 0 5 0 2.5 2.5 0 0 0 -5 0" transform="rotate(-48) translate(0 168.3407020660446) rotate(-138)" opacity="0.5"></path><path d="m -5 0 a 5 5 0 0 1 10 0 l 0 70 a 5 5 0 0 1 -10 0 l 0 -70 z m 2.5 -10 m 0 10 a 2.5 2.5 0 0 0 5 0 2.5 2.5 0 0 0 -5 0 m 0 10 m 0 10 m 0 10 m 0 10 m 0 10 m 0 10 m 0 10 a 2.5 2.5 0 0 0 5 0 2.5 2.5 0 0 0 -5 0" transform="rotate(-48) translate(0 168.3407020660446) rotate(-138) translate(0 70) rotate(144)" opacity="0.5"></path><path d="m -5 0 a 5 5 0 0 1 10 0 l 0 70 a 5 5 0 0 1 -10 0 l 0 -70 z m 2.5 -10 m 0 10 a 2.5 2.5 0 0 0 5 0 2.5 2.5 0 0 0 -5 0 m 0 10 m 0 10 m 0 10 m 0 10 m 0 10 m 0 10 m 0 10 a 2.5 2.5 0 0 0 5 0 2.5 2.5 0 0 0 -5 0" transform="rotate(-48) translate(0 168.3407020660446) rotate(-138) translate(0 70) rotate(144) translate(0 70) rotate(144)" opacity="0.5"></path><path d="m -5 0 a 5 5 0 0 1 10 0 l 0 70 a 5 5 0 0 1 -10 0 l 0 -70 z m 2.5 -10 m 0 10 a 2.5 2.5 0 0 0 5 0 2.5 2.5 0 0 0 -5 0 m 0 10 m 0 10 m 0 10 m 0 10 m 0 10 m 0 10 m 0 10 a 2.5 2.5 0 0 0 5 0 2.5 2.5 0 0 0 -5 0" transform="rotate(-48) translate(0 168.3407020660446) rotate(-138) translate(0 70) rotate(144) translate(0 70) rotate(144) translate(0 70) rotate(144)" opacity="0.5"></path><path d="m -5 0 a 5 5 0 0 1 10 0 l 0 70 a 5 5 0 0 1 -10 0 l 0 -70 z m 2.5 -10 m 0 10 a 2.5 2.5 0 0 0 5 0 2.5 2.5 0 0 0 -5 0 m 0 10 m 0 10 m 0 10 m 0 10 m 0 10 m 0 10 m 0 10 a 2.5 2.5 0 0 0 5 0 2.5 2.5 0 0 0 -5 0" transform="rotate(-120) translate(0 168.3407020660446) rotate(-138)" opacity="0.5"></path><path d="m -5 0 a 5 5 0 0 1 10 0 l 0 70 a 5 5 0 0 1 -10 0 l 0 -70 z m 2.5 -10 m 0 10 a 2.5 2.5 0 0 0 5 0 2.5 2.5 0 0 0 -5 0 m 0 10 m 0 10 m 0 10 m 0 10 m 0 10 m 0 10 m 0 10 a 2.5 2.5 0 0 0 5 0 2.5 2.5 0 0 0 -5 0" transform="rotate(-120) translate(0 168.3407020660446) rotate(-138) translate(0 70) rotate(144)" opacity="0.5"></path><path d="m -5 0 a 5 5 0 0 1 10 0 l 0 70 a 5 5 0 0 1 -10 0 l 0 -70 z m 2.5 -10 m 0 10 a 2.5 2.5 0 0 0 5 0 2.5 2.5 0 0 0 -5 0 m 0 10 m 0 10 m 0 10 m 0 10 m 0 10 m 0 10 m 0 10 a 2.5 2.5 0 0 0 5 0 2.5 2.5 0 0 0 -5 0" transform="rotate(-120) translate(0 168.3407020660446) rotate(-138) translate(0 70) rotate(144) translate(0 70) rotate(144)" opacity="0.5"></path><path d="m -5 0 a 5 5 0 0 1 10 0 l 0 70 a 5 5 0 0 1 -10 0 l 0 -70 z m 2.5 -10 m 0 10 a 2.5 2.5 0 0 0 5 0 2.5 2.5 0 0 0 -5 0 m 0 10 m 0 10 m 0 10 m 0 10 m 0 10 m 0 10 m 0 10 a 2.5 2.5 0 0 0 5 0 2.5 2.5 0 0 0 -5 0" transform="rotate(-120) translate(0 168.3407020660446) rotate(-138) translate(0 70) rotate(144) translate(0 70) rotate(144) translate(0 70) rotate(144)" opacity="0.5"></path><path d="m -5 0 a 5 5 0 0 1 10 0 l 0 70 a 5 5 0 0 1 -10 0 l 0 -70 z m 2.5 -10 m 0 10 a 2.5 2.5 0 0 0 5 0 2.5 2.5 0 0 0 -5 0 m 0 10 m 0 10 m 0 10 m 0 10 m 0 10 m 0 10 m 0 10 a 2.5 2.5 0 0 0 5 0 2.5 2.5 0 0 0 -5 0" transform="rotate(-168) translate(0 168.3407020660446) rotate(-138)" opacity="0.5"></path><path d="m -5 0 a 5 5 0 0 1 10 0 l 0 70 a 5 5 0 0 1 -10 0 l 0 -70 z m 2.5 -10 m 0 10 a 2.5 2.5 0 0 0 5 0 2.5 2.5 0 0 0 -5 0 m 0 10 m 0 10 m 0 10 m 0 10 m 0 10 m 0 10 m 0 10 a 2.5 2.5 0 0 0 5 0 2.5 2.5 0 0 0 -5 0" transform="rotate(-168) translate(0 168.3407020660446) rotate(-138) translate(0 70) rotate(144)" opacity="0.5"></path><path d="m -5 0 a 5 5 0 0 1 10 0 l 0 70 a 5 5 0 0 1 -10 0 l 0 -70 z m 2.5 -10 m 0 10 a 2.5 2.5 0 0 0 5 0 2.5 2.5 0 0 0 -5 0 m 0 10 m 0 10 m 0 10 m 0 10 m 0 10 m 0 10 m 0 10 a 2.5 2.5 0 0 0 5 0 2.5 2.5 0 0 0 -5 0" transform="rotate(-168) translate(0 168.3407020660446) rotate(-138) translate(0 70) rotate(144) translate(0 70) rotate(144)" opacity="0.5"></path><path d="m -5 0 a 5 5 0 0 1 10 0 l 0 70 a 5 5 0 0 1 -10 0 l 0 -70 z m 2.5 -10 m 0 10 a 2.5 2.5 0 0 0 5 0 2.5 2.5 0 0 0 -5 0 m 0 10 m 0 10 m 0 10 m 0 10 m 0 10 m 0 10 m 0 10 a 2.5 2.5 0 0 0 5 0 2.5 2.5 0 0 0 -5 0" transform="rotate(-168) translate(0 168.3407020660446) rotate(-138) translate(0 70) rotate(144) translate(0 70) rotate(144) translate(0 70) rotate(144)" opacity="0.5"></path><path d="m -5 0 a 5 5 0 0 1 10 0 l 0 70 a 5 5 0 0 1 -10 0 l 0 -70 z m 2.5 -10 m 0 10 a 2.5 2.5 0 0 0 5 0 2.5 2.5 0 0 0 -5 0 m 0 10 m 0 10 m 0 10 m 0 10 m 0 10 m 0 10 m 0 10 a 2.5 2.5 0 0 0 5 0 2.5 2.5 0 0 0 -5 0" transform="rotate(-240) translate(0 168.3407020660446) rotate(-138)" opacity="0.5"></path><path d="m -5 0 a 5 5 0 0 1 10 0 l 0 70 a 5 5 0 0 1 -10 0 l 0 -70 z m 2.5 -10 m 0 10 a 2.5 2.5 0 0 0 5 0 2.5 2.5 0 0 0 -5 0 m 0 10 m 0 10 m 0 10 m 0 10 m 0 10 m 0 10 m 0 10 a 2.5 2.5 0 0 0 5 0 2.5 2.5 0 0 0 -5 0" transform="rotate(-240) translate(0 168.3407020660446) rotate(-138) translate(0 70) rotate(144)" opacity="0.5"></path><path d="m -5 0 a 5 5 0 0 1 10 0 l 0 70 a 5 5 0 0 1 -10 0 l 0 -70 z m 2.5 -10 m 0 10 a 2.5 2.5 0 0 0 5 0 2.5 2.5 0 0 0 -5 0 m 0 10 m 0 10 m 0 10 m 0 10 m 0 10 m 0 10 m 0 10 a 2.5 2.5 0 0 0 5 0 2.5 2.5 0 0 0 -5 0" transform="rotate(-240) translate(0 168.3407020660446) rotate(-138) translate(0 70) rotate(144) translate(0 70) rotate(144)" opacity="0.5"></path><path d="m -5 0 a 5 5 0 0 1 10 0 l 0 70 a 5 5 0 0 1 -10 0 l 0 -70 z m 2.5 -10 m 0 10 a 2.5 2.5 0 0 0 5 0 2.5 2.5 0 0 0 -5 0 m 0 10 m 0 10 m 0 10 m 0 10 m 0 10 m 0 10 m 0 10 a 2.5 2.5 0 0 0 5 0 2.5 2.5 0 0 0 -5 0" transform="rotate(-240) translate(0 168.3407020660446) rotate(-138) translate(0 70) rotate(144) translate(0 70) rotate(144) translate(0 70) rotate(144)" opacity="0.5"></path><path d="m -5 0 a 5 5 0 0 1 10 0 l 0 70 a 5 5 0 0 1 -10 0 l 0 -70 z m 2.5 -10 m 0 10 a 2.5 2.5 0 0 0 5 0 2.5 2.5 0 0 0 -5 0 m 0 10 m 0 10 m 0 10 m 0 10 m 0 10 m 0 10 m 0 10 a 2.5 2.5 0 0 0 5 0 2.5 2.5 0 0 0 -5 0" transform="rotate(-288) translate(0 168.3407020660446) rotate(-138)" opacity="0.5"></path><path d="m -5 0 a 5 5 0 0 1 10 0 l 0 70 a 5 5 0 0 1 -10 0 l 0 -70 z m 2.5 -10 m 0 10 a 2.5 2.5 0 0 0 5 0 2.5 2.5 0 0 0 -5 0 m 0 10 m 0 10 m 0 10 m 0 10 m 0 10 m 0 10 m 0 10 a 2.5 2.5 0 0 0 5 0 2.5 2.5 0 0 0 -5 0" transform="rotate(-288) translate(0 168.3407020660446) rotate(-138) translate(0 70) rotate(144)" opacity="0.5"></path><path d="m -5 0 a 5 5 0 0 1 10 0 l 0 70 a 5 5 0 0 1 -10 0 l 0 -70 z m 2.5 -10 m 0 10 a 2.5 2.5 0 0 0 5 0 2.5 2.5 0 0 0 -5 0 m 0 10 m 0 10 m 0 10 m 0 10 m 0 10 m 0 10 m 0 10 a 2.5 2.5 0 0 0 5 0 2.5 2.5 0 0 0 -5 0" transform="rotate(-288) translate(0 168.3407020660446) rotate(-138) translate(0 70) rotate(144) translate(0 70) rotate(144)" opacity="0.5"></path><path d="m -5 0 a 5 5 0 0 1 10 0 l 0 70 a 5 5 0 0 1 -10 0 l 0 -70 z m 2.5 -10 m 0 10 a 2.5 2.5 0 0 0 5 0 2.5 2.5 0 0 0 -5 0 m 0 10 m 0 10 m 0 10 m 0 10 m 0 10 m 0 10 m 0 10 a 2.5 2.5 0 0 0 5 0 2.5 2.5 0 0 0 -5 0" transform="rotate(-288) translate(0 168.3407020660446) rotate(-138) translate(0 70) rotate(144) translate(0 70) rotate(144) translate(0 70) rotate(144)" opacity="0.5"></path></g><g fill="#dd0"><path d="m -5 0 a 5 5 0 0 1 10 0 l 0 70 a 5 5 0 0 1 -10 0 l 0 -70 z m 2.5 -10 m 0 10 a 2.5 2.5 0 0 0 5 0 2.5 2.5 0 0 0 -5 0 m 0 10 m 0 10 m 0 10 m 0 10 m 0 10 m 0 10 m 0 10 a 2.5 2.5 0 0 0 5 0 2.5 2.5 0 0 0 -5 0" transform="rotate(0) translate(0 168.3407020660446) rotate(-138) translate(0 70) rotate(-120)" opacity="0.5"></path><path d="m -5 0 a 5 5 0 0 1 10 0 l 0 70 a 5 5 0 0 1 -10 0 l 0 -70 z m 2.5 -10 m 0 10 a 2.5 2.5 0 0 0 5 0 2.5 2.5 0 0 0 -5 0 m 0 10 m 0 10 m 0 10 m 0 10 m 0 10 m 0 10 m 0 10 a 2.5 2.5 0 0 0 5 0 2.5 2.5 0 0 0 -5 0" transform="rotate(0) translate(0 168.3407020660446) rotate(-138) translate(0 70) rotate(-120) translate(0 70) rotate(-120)" opacity="0.5"></path><path d="m -5 0 a 5 5 0 0 1 10 0 l 0 70 a 5 5 0 0 1 -10 0 l 0 -70 z m 2.5 -10 m 0 10 a 2.5 2.5 0 0 0 5 0 2.5 2.5 0 0 0 -5 0 m 0 10 m 0 10 m 0 10 m 0 10 m 0 10 m 0 10 m 0 10 a 2.5 2.5 0 0 0 5 0 2.5 2.5 0 0 0 -5 0" transform="rotate(-48) translate(0 168.3407020660446) rotate(-138) translate(0 70) rotate(-120)" opacity="0.5"></path><path d="m -5 0 a 5 5 0 0 1 10 0 l 0 70 a 5 5 0 0 1 -10 0 l 0 -70 z m 2.5 -10 m 0 10 a 2.5 2.5 0 0 0 5 0 2.5 2.5 0 0 0 -5 0 m 0 10 m 0 10 m 0 10 m 0 10 m 0 10 m 0 10 m 0 10 a 2.5 2.5 0 0 0 5 0 2.5 2.5 0 0 0 -5 0" transform="rotate(-48) translate(0 168.3407020660446) rotate(-138) translate(0 70) rotate(-120) translate(0 70) rotate(-120)" opacity="0.5"></path><path d="m -5 0 a 5 5 0 0 1 10 0 l 0 70 a 5 5 0 0 1 -10 0 l 0 -70 z m 2.5 -10 m 0 10 a 2.5 2.5 0 0 0 5 0 2.5 2.5 0 0 0 -5 0 m 0 10 m 0 10 m 0 10 m 0 10 m 0 10 m 0 10 m 0 10 a 2.5 2.5 0 0 0 5 0 2.5 2.5 0 0 0 -5 0" transform="rotate(-120) translate(0 168.3407020660446) rotate(-138) translate(0 70) rotate(-120)" opacity="0.5"></path><path d="m -5 0 a 5 5 0 0 1 10 0 l 0 70 a 5 5 0 0 1 -10 0 l 0 -70 z m 2.5 -10 m 0 10 a 2.5 2.5 0 0 0 5 0 2.5 2.5 0 0 0 -5 0 m 0 10 m 0 10 m 0 10 m 0 10 m 0 10 m 0 10 m 0 10 a 2.5 2.5 0 0 0 5 0 2.5 2.5 0 0 0 -5 0" transform="rotate(-120) translate(0 168.3407020660446) rotate(-138) translate(0 70) rotate(-120) translate(0 70) rotate(-120)" opacity="0.5"></path><path d="m -5 0 a 5 5 0 0 1 10 0 l 0 70 a 5 5 0 0 1 -10 0 l 0 -70 z m 2.5 -10 m 0 10 a 2.5 2.5 0 0 0 5 0 2.5 2.5 0 0 0 -5 0 m 0 10 m 0 10 m 0 10 m 0 10 m 0 10 m 0 10 m 0 10 a 2.5 2.5 0 0 0 5 0 2.5 2.5 0 0 0 -5 0" transform="rotate(-168) translate(0 168.3407020660446) rotate(-138) translate(0 70) rotate(-120)" opacity="0.5"></path><path d="m -5 0 a 5 5 0 0 1 10 0 l 0 70 a 5 5 0 0 1 -10 0 l 0 -70 z m 2.5 -10 m 0 10 a 2.5 2.5 0 0 0 5 0 2.5 2.5 0 0 0 -5 0 m 0 10 m 0 10 m 0 10 m 0 10 m 0 10 m 0 10 m 0 10 a 2.5 2.5 0 0 0 5 0 2.5 2.5 0 0 0 -5 0" transform="rotate(-168) translate(0 168.3407020660446) rotate(-138) translate(0 70) rotate(-120) translate(0 70) rotate(-120)" opacity="0.5"></path><path d="m -5 0 a 5 5 0 0 1 10 0 l 0 70 a 5 5 0 0 1 -10 0 l 0 -70 z m 2.5 -10 m 0 10 a 2.5 2.5 0 0 0 5 0 2.5 2.5 0 0 0 -5 0 m 0 10 m 0 10 m 0 10 m 0 10 m 0 10 m 0 10 m 0 10 a 2.5 2.5 0 0 0 5 0 2.5 2.5 0 0 0 -5 0" transform="rotate(-240) translate(0 168.3407020660446) rotate(-138) translate(0 70) rotate(-120)" opacity="0.5"></path><path d="m -5 0 a 5 5 0 0 1 10 0 l 0 70 a 5 5 0 0 1 -10 0 l 0 -70 z m 2.5 -10 m 0 10 a 2.5 2.5 0 0 0 5 0 2.5 2.5 0 0 0 -5 0 m 0 10 m 0 10 m 0 10 m 0 10 m 0 10 m 0 10 m 0 10 a 2.5 2.5 0 0 0 5 0 2.5 2.5 0 0 0 -5 0" transform="rotate(-240) translate(0 168.3407020660446) rotate(-138) translate(0 70) rotate(-120) translate(0 70) rotate(-120)" opacity="0.5"></path><path d="m -5 0 a 5 5 0 0 1 10 0 l 0 70 a 5 5 0 0 1 -10 0 l 0 -70 z m 2.5 -10 m 0 10 a 2.5 2.5 0 0 0 5 0 2.5 2.5 0 0 0 -5 0 m 0 10 m 0 10 m 0 10 m 0 10 m 0 10 m 0 10 m 0 10 a 2.5 2.5 0 0 0 5 0 2.5 2.5 0 0 0 -5 0" transform="rotate(-288) translate(0 168.3407020660446) rotate(-138) translate(0 70) rotate(-120)" opacity="0.5"></path><path d="m -5 0 a 5 5 0 0 1 10 0 l 0 70 a 5 5 0 0 1 -10 0 l 0 -70 z m 2.5 -10 m 0 10 a 2.5 2.5 0 0 0 5 0 2.5 2.5 0 0 0 -5 0 m 0 10 m 0 10 m 0 10 m 0 10 m 0 10 m 0 10 m 0 10 a 2.5 2.5 0 0 0 5 0 2.5 2.5 0 0 0 -5 0" transform="rotate(-288) translate(0 168.3407020660446) rotate(-138) translate(0 70) rotate(-120) translate(0 70) rotate(-120)" opacity="0.5"></path></g><g fill="#0c0"><path d="m -5 0 a 5 5 0 0 1 10 0 l 0 70 a 5 5 0 0 1 -10 0 l 0 -70 z m 2.5 -10 m 0 10 a 2.5 2.5 0 0 0 5 0 2.5 2.5 0 0 0 -5 0 m 0 10 m 0 10 m 0 10 m 0 10 m 0 10 m 0 10 m 0 10 a 2.5 2.5 0 0 0 5 0 2.5 2.5 0 0 0 -5 0" transform="rotate(0) translate(0 168.3407020660446) rotate(-138) translate(0 70) rotate(144) translate(0 70) rotate(144) translate(0 70) rotate(84)" opacity="0.5"></path><path d="m -5 0 a 5 5 0 0 1 10 0 l 0 70 a 5 5 0 0 1 -10 0 l 0 -70 z m 2.5 -10 m 0 10 a 2.5 2.5 0 0 0 5 0 2.5 2.5 0 0 0 -5 0 m 0 10 m 0 10 m 0 10 m 0 10 m 0 10 m 0 10 m 0 10 a 2.5 2.5 0 0 0 5 0 2.5 2.5 0 0 0 -5 0" transform="rotate(0) translate(0 168.3407020660446) rotate(-138) translate(0 70) rotate(144) translate(0 70) rotate(144) translate(0 70) rotate(84) translate(0 70) rotate(120)" opacity="0.5"></path><path d="m -5 0 a 5 5 0 0 1 10 0 l 0 70 a 5 5 0 0 1 -10 0 l 0 -70 z m 2.5 -10 m 0 10 a 2.5 2.5 0 0 0 5 0 2.5 2.5 0 0 0 -5 0 m 0 10 m 0 10 m 0 10 m 0 10 m 0 10 m 0 10 m 0 10 a 2.5 2.5 0 0 0 5 0 2.5 2.5 0 0 0 -5 0" transform="rotate(-48) translate(0 168.3407020660446) rotate(-138) translate(0 70) rotate(144) translate(0 70) rotate(144) translate(0 70) rotate(84)" opacity="0.5"></path><path d="m -5 0 a 5 5 0 0 1 10 0 l 0 70 a 5 5 0 0 1 -10 0 l 0 -70 z m 2.5 -10 m 0 10 a 2.5 2.5 0 0 0 5 0 2.5 2.5 0 0 0 -5 0 m 0 10 m 0 10 m 0 10 m 0 10 m 0 10 m 0 10 m 0 10 a 2.5 2.5 0 0 0 5 0 2.5 2.5 0 0 0 -5 0" transform="rotate(-48) translate(0 168.3407020660446) rotate(-138) translate(0 70) rotate(144) translate(0 70) rotate(144) translate(0 70) rotate(84) translate(0 70) rotate(120)" opacity="0.5"></path><path d="m -5 0 a 5 5 0 0 1 10 0 l 0 70 a 5 5 0 0 1 -10 0 l 0 -70 z m 2.5 -10 m 0 10 a 2.5 2.5 0 0 0 5 0 2.5 2.5 0 0 0 -5 0 m 0 10 m 0 10 m 0 10 m 0 10 m 0 10 m 0 10 m 0 10 a 2.5 2.5 0 0 0 5 0 2.5 2.5 0 0 0 -5 0" transform="rotate(-120) translate(0 168.3407020660446) rotate(-138) translate(0 70) rotate(144) translate(0 70) rotate(144) translate(0 70) rotate(84)" opacity="0.5"></path><path d="m -5 0 a 5 5 0 0 1 10 0 l 0 70 a 5 5 0 0 1 -10 0 l 0 -70 z m 2.5 -10 m 0 10 a 2.5 2.5 0 0 0 5 0 2.5 2.5 0 0 0 -5 0 m 0 10 m 0 10 m 0 10 m 0 10 m 0 10 m 0 10 m 0 10 a 2.5 2.5 0 0 0 5 0 2.5 2.5 0 0 0 -5 0" transform="rotate(-120) translate(0 168.3407020660446) rotate(-138) translate(0 70) rotate(144) translate(0 70) rotate(144) translate(0 70) rotate(84) translate(0 70) rotate(120)" opacity="0.5"></path><path d="m -5 0 a 5 5 0 0 1 10 0 l 0 70 a 5 5 0 0 1 -10 0 l 0 -70 z m 2.5 -10 m 0 10 a 2.5 2.5 0 0 0 5 0 2.5 2.5 0 0 0 -5 0 m 0 10 m 0 10 m 0 10 m 0 10 m 0 10 m 0 10 m 0 10 a 2.5 2.5 0 0 0 5 0 2.5 2.5 0 0 0 -5 0" transform="rotate(-168) translate(0 168.3407020660446) rotate(-138) translate(0 70) rotate(144) translate(0 70) rotate(144) translate(0 70) rotate(84)" opacity="0.5"></path><path d="m -5 0 a 5 5 0 0 1 10 0 l 0 70 a 5 5 0 0 1 -10 0 l 0 -70 z m 2.5 -10 m 0 10 a 2.5 2.5 0 0 0 5 0 2.5 2.5 0 0 0 -5 0 m 0 10 m 0 10 m 0 10 m 0 10 m 0 10 m 0 10 m 0 10 a 2.5 2.5 0 0 0 5 0 2.5 2.5 0 0 0 -5 0" transform="rotate(-168) translate(0 168.3407020660446) rotate(-138) translate(0 70) rotate(144) translate(0 70) rotate(144) translate(0 70) rotate(84) translate(0 70) rotate(120)" opacity="0.5"></path><path d="m -5 0 a 5 5 0 0 1 10 0 l 0 70 a 5 5 0 0 1 -10 0 l 0 -70 z m 2.5 -10 m 0 10 a 2.5 2.5 0 0 0 5 0 2.5 2.5 0 0 0 -5 0 m 0 10 m 0 10 m 0 10 m 0 10 m 0 10 m 0 10 m 0 10 a 2.5 2.5 0 0 0 5 0 2.5 2.5 0 0 0 -5 0" transform="rotate(-240) translate(0 168.3407020660446) rotate(-138) translate(0 70) rotate(144) translate(0 70) rotate(144) translate(0 70) rotate(84)" opacity="0.5"></path><path d="m -5 0 a 5 5 0 0 1 10 0 l 0 70 a 5 5 0 0 1 -10 0 l 0 -70 z m 2.5 -10 m 0 10 a 2.5 2.5 0 0 0 5 0 2.5 2.5 0 0 0 -5 0 m 0 10 m 0 10 m 0 10 m 0 10 m 0 10 m 0 10 m 0 10 a 2.5 2.5 0 0 0 5 0 2.5 2.5 0 0 0 -5 0" transform="rotate(-240) translate(0 168.3407020660446) rotate(-138) translate(0 70) rotate(144) translate(0 70) rotate(144) translate(0 70) rotate(84) translate(0 70) rotate(120)" opacity="0.5"></path><path d="m -5 0 a 5 5 0 0 1 10 0 l 0 70 a 5 5 0 0 1 -10 0 l 0 -70 z m 2.5 -10 m 0 10 a 2.5 2.5 0 0 0 5 0 2.5 2.5 0 0 0 -5 0 m 0 10 m 0 10 m 0 10 m 0 10 m 0 10 m 0 10 m 0 10 a 2.5 2.5 0 0 0 5 0 2.5 2.5 0 0 0 -5 0" transform="rotate(-288) translate(0 168.3407020660446) rotate(-138) translate(0 70) rotate(144) translate(0 70) rotate(144) translate(0 70) rotate(84)" opacity="0.5"></path><path d="m -5 0 a 5 5 0 0 1 10 0 l 0 70 a 5 5 0 0 1 -10 0 l 0 -70 z m 2.5 -10 m 0 10 a 2.5 2.5 0 0 0 5 0 2.5 2.5 0 0 0 -5 0 m 0 10 m 0 10 m 0 10 m 0 10 m 0 10 m 0 10 m 0 10 a 2.5 2.5 0 0 0 5 0 2.5 2.5 0 0 0 -5 0" transform="rotate(-288) translate(0 168.3407020660446) rotate(-138) translate(0 70) rotate(144) translate(0 70) rotate(144) translate(0 70) rotate(84) translate(0 70) rotate(120)" opacity="0.5"></path></g><g fill="#08f"><path d="m -5 0 a 5 5 0 0 1 10 0 l 0 70 a 5 5 0 0 1 -10 0 l 0 -70 z m 2.5 -10 m 0 10 a 2.5 2.5 0 0 0 5 0 2.5 2.5 0 0 0 -5 0 m 0 10 m 0 10 m 0 10 m 0 10 m 0 10 m 0 10 m 0 10 a 2.5 2.5 0 0 0 5 0 2.5 2.5 0 0 0 -5 0" transform="rotate(-96) translate(0 168.3407020660446) rotate(162)" opacity="0.5"></path><path d="m -5 0 a 5 5 0 0 1 10 0 l 0 70 a 5 5 0 0 1 -10 0 l 0 -70 z m 2.5 -10 m 0 10 a 2.5 2.5 0 0 0 5 0 2.5 2.5 0 0 0 -5 0 m 0 10 m 0 10 m 0 10 m 0 10 m 0 10 m 0 10 m 0 10 a 2.5 2.5 0 0 0 5 0 2.5 2.5 0 0 0 -5 0" transform="rotate(-96) translate(0 168.3407020660446) rotate(198)" opacity="0.5"></path><path d="m -5 0 a 5 5 0 0 1 10 0 l 0 70 a 5 5 0 0 1 -10 0 l 0 -70 z m 2.5 -10 m 0 10 a 2.5 2.5 0 0 0 5 0 2.5 2.5 0 0 0 -5 0 m 0 10 m 0 10 m 0 10 m 0 10 m 0 10 m 0 10 m 0 10 a 2.5 2.5 0 0 0 5 0 2.5 2.5 0 0 0 -5 0" transform="rotate(-216) translate(0 168.3407020660446) rotate(162)" opacity="0.5"></path><path d="m -5 0 a 5 5 0 0 1 10 0 l 0 70 a 5 5 0 0 1 -10 0 l 0 -70 z m 2.5 -10 m 0 10 a 2.5 2.5 0 0 0 5 0 2.5 2.5 0 0 0 -5 0 m 0 10 m 0 10 m 0 10 m 0 10 m 0 10 m 0 10 m 0 10 a 2.5 2.5 0 0 0 5 0 2.5 2.5 0 0 0 -5 0" transform="rotate(-216) translate(0 168.3407020660446) rotate(198)" opacity="0.5"></path><path d="m -5 0 a 5 5 0 0 1 10 0 l 0 70 a 5 5 0 0 1 -10 0 l 0 -70 z m 2.5 -10 m 0 10 a 2.5 2.5 0 0 0 5 0 2.5 2.5 0 0 0 -5 0 m 0 10 m 0 10 m 0 10 m 0 10 m 0 10 m 0 10 m 0 10 a 2.5 2.5 0 0 0 5 0 2.5 2.5 0 0 0 -5 0" transform="rotate(-336) translate(0 168.3407020660446) rotate(162)" opacity="0.5"></path><path d="m -5 0 a 5 5 0 0 1 10 0 l 0 70 a 5 5 0 0 1 -10 0 l 0 -70 z m 2.5 -10 m 0 10 a 2.5 2.5 0 0 0 5 0 2.5 2.5 0 0 0 -5 0 m 0 10 m 0 10 m 0 10 m 0 10 m 0 10 m 0 10 m 0 10 a 2.5 2.5 0 0 0 5 0 2.5 2.5 0 0 0 -5 0" transform="rotate(-336) translate(0 168.3407020660446) rotate(198)" opacity="0.5"></path></g></g></svg>