<svg xmlns="http://www.w3.org/2000/svg" width="400" height="400"><g transform="translate(180 344) scale(20 -20)" stroke-width="1px" stroke-linecap="round"><line x1="-2" y1="0" x2="4" y2="0" opacity="0.6" stroke="#f20"></line><line x1="0" y1="0" x2="0" y2="4" opacity="0.6" stroke="#02f"></line><line x1="0" y1="4" x2="3" y2="0" opacity="0.6" stroke="#0f2"></line><line x1="0" y1="4" x2="5.414213562373095" y2="1.4142135623730951" opacity="0.6" stroke="#f20"></line><g transform="translate(5.414213562373095 1.4142135623730951) rotate(45)"><line x1="-2" y1="0" x2="4" y2="0" opacity="0.6" stroke="#f20"></line><line x1="0" y1="0" x2="0" y2="4" opacity="0.6" stroke="#02f"></line><line x1="0" y1="4" x2="3" y2="0" opacity="0.6" stroke="#0f2"></line><line x1="0" y1="4" x2="5.414213562373095" y2="1.4142135623730951" opacity="0.6" stroke="#f20"></line><g transform="translate(5.414213562373095 1.4142135623730951) rotate(45)"><line x1="-2" y1="0" x2="4" y2="0" opacity="0.6" stroke="#f20"></line><line x1="0" y1="0" x2="0" y2="4" opacity="0.6" stroke="#02f"></line><line x1="0" y1="4" x2="3" y2="0" opacity="0.6" stroke="#0f2"></line><line x1="0" y1="4" x2="5.414213562373095" y2="1.4142135623730951" opacity="0.6" stroke="#f20"></line><g transform="translate(5.414213562373095 1.4142135623730951) rotate(45)"><line x1="-2" y1="0" x2="4" y2="0" opacity="0.6" stroke="#f20"></line><line x1="0" y1="0" x2="0" y2="4" opacity="0.6" stroke="#02f"></line><line x1="0" y1="4" x2="3" y2="0" opacity="0.6" stroke="#0f2"></line><line x1="0" y1="4" x2="5.414213562373095" y2="1.4142135623730951" opacity="0.6" stroke="#f20"></line><g transform="translate(5.414213562373095 1.4142135623730951) rotate(45)"><line x1="-2" y1="0" x2="4" y2="0" opacity="0.6" stroke="#f20"></line><line x1="0" y1="0" x2="0" y2="4" opacity="0.6" stroke="#02f"></line><line x1="0" y1="4" x2="3" y2="0" opacity="0.6" stroke="#0f2"></line><line x1="0" y1="4" x2="5.414213562373095" y2="1.4142135623730951" opacity="0.6" stroke="#f20"></line><g transform="translate(5.414213562373095 1.4142135623730951) rotate(45)"><line x1="-2" y1="0" x2="4" y2="0" opacity="0.6" stroke="#f20"></line><g transform="translate(5.414213562373095 1.4142135623730951) rotate(45)"><line x1="-2" y1="0" x2="4" y2="0" opacity="0.6" stroke="#f20"></line><g transform="translate(5.414213562373095 1.4142135623730951) rotate(45)"><line x1="-2" y1="0" x2="4" y2="0" opacity="0.6" stroke="#f20"></line></g></g></g></g></g></g></g></g></svg>