<?xml version="1.0" encoding="UTF-8"?><svg xmlns="http://www.w3.org/2000/svg" width="400" height="400"><g transform="translate(200 200) scale(4 -4) rotate(22.5)" stroke-width="0.3px" stroke-linecap="round" stroke="#00f"><g fill="#08f"><path d="m -4 0 a 4 4 0 0 1 8 0 l 0 32 a 4 4 0 0 1 -8 0 l 0 -32 z m 2 -8 m 0 8 a 2 2 0 0 0 4 0 2 2 0 0 0 -4 0 m 0 8 a 2 2 0 0 0 4 0 2 2 0 0 0 -4 0 m 0 8 a 2 2 0 0 0 4 0 2 2 0 0 0 -4 0 m 0 8 a 2 2 0 0 0 4 0 2 2 0 0 0 -4 0 m 0 8 a 2 2 0 0 0 4 0 2 2 0 0 0 -4 0" transform="rotate(0) translate(0 41.81001487604405) rotate(-112.5)" opacity="0.5"></path><path d="m -4 0 a 4 4 0 0 1 8 0 l 0 32 a 4 4 0 0 1 -8 0 l 0 -32 z m 2 -8 m 0 8 a 2 2 0 0 0 4 0 2 2 0 0 0 -4 0 m 0 8 a 2 2 0 0 0 4 0 2 2 0 0 0 -4 0 m 0 8 a 2 2 0 0 0 4 0 2 2 0 0 0 -4 0 m 0 8 a 2 2 0 0 0 4 0 2 2 0 0 0 -4 0 m 0 8 a 2 2 0 0 0 4 0 2 2 0 0 0 -4 0" transform="rotate(0) translate(0 41.81001487604405) rotate(-202.5)" opacity="0.5"></path><path d="m -4 0 a 4 4 0 0 1 8 0 l 0 32 a 4 4 0 0 1 -8 0 l 0 -32 z m 2 -8 m 0 8 a 2 2 0 0 0 4 0 2 2 0 0 0 -4 0 m 0 8 a 2 2 0 0 0 4 0 2 2 0 0 0 -4 0 m 0 8 a 2 2 0 0 0 4 0 2 2 0 0 0 -4 0 m 0 8 a 2 2 0 0 0 4 0 2 2 0 0 0 -4 0 m 0 8 a 2 2 0 0 0 4 0 2 2 0 0 0 -4 0" transform="rotate(-45) translate(0 41.81001487604405) rotate(-112.5)" opacity="0.5"></path><path d="m -4 0 a 4 4 0 0 1 8 0 l 0 32 a 4 4 0 0 1 -8 0 l 0 -32 z m 2 -8 m 0 8 a 2 2 0 0 0 4 0 2 2 0 0 0 -4 0 m 0 8 a 2 2 0 0 0 4 0 2 2 0 0 0 -4 0 m 0 8 a 2 2 0 0 0 4 0 2 2 0 0 0 -4 0 m 0 8 a 2 2 0 0 0 4 0 2 2 0 0 0 -4 0 m 0 8 a 2 2 0 0 0 4 0 2 2 0 0 0 -4 0" transform="rotate(-45) translate(0 41.81001487604405) rotate(-157.5)" opacity="0.5"></path><path d="m -4 0 a 4 4 0 0 1 8 0 l 0 32 a 4 4 0 0 1 -8 0 l 0 -32 z m 2 -8 m 0 8 a 2 2 0 0 0 4 0 2 2 0 0 0 -4 0 m 0 8 a 2 2 0 0 0 4 0 2 2 0 0 0 -4 0 m 0 8 a 2 2 0 0 0 4 0 2 2 0 0 0 -4 0 m 0 8 a 2 2 0 0 0 4 0 2 2 0 0 0 -4 0 m 0 8 a 2 2 0 0 0 4 0 2 2 0 0 0 -4 0" transform="rotate(-90) translate(0 41.81001487604405) rotate(-112.5)" opacity="0.5"></path><path d="m -4 0 a 4 4 0 0 1 8 0 l 0 32 a 4 4 0 0 1 -8 0 l 0 -32 z m 2 -8 m 0 8 a 2 2 0 0 0 4 0 2 2 0 0 0 -4 0 m 0 8 a 2 2 0 0 0 4 0 2 2 0 0 0 -4 0 m 0 8 a 2 2 0 0 0 4 0 2 2 0 0 0 -4 0 m 0 8 a 2 2 0 0 0 4 0 2 2 0 0 0 -4 0 m 0 8 a 2 2 0 0 0 4 0 2 2 0 0 0 -4 0" transform="rotate(-135) translate(0 41.81001487604405) rotate(-112.5)" opacity="0.5"></path><path d="m -4 0 a 4 4 0 0 1 8 0 l 0 32 a 4 4 0 0 1 -8 0 l 0 -32 z m 2 -8 m 0 8 a 2 2 0 0 0 4 0 2 2 0 0 0 -4 0 m 0 8 a 2 2 0 0 0 4 0 2 2 0 0 0 -4 0 m 0 8 a 2 2 0 0 0 4 0 2 2 0 0 0 -4 0 m 0 8 a 2 2 0 0 0 4 0 2 2 0 0 0 -4 0 m 0 8 a 2 2 0 0 0 4 0 2 2 0 0 0 -4 0" transform="rotate(-135) translate(0 41.81001487604405) rotate(-202.5)" opacity="0.5"></path><path d="m -4 0 a 4 4 0 0 1 8 0 l 0 32 a 4 4 0 0 1 -8 0 l 0 -32 z m 2 -8 m 0 8 a 2 2 0 0 0 4 0 2 2 0 0 0 -4 0 m 0 8 a 2 2 0 0 0 4 0 2 2 0 0 0 -4 0 m 0 8 a 2 2 0 0 0 4 0 2 2 0 0 0 -4 0 m 0 8 a 2 2 0 0 0 4 0 2 2 0 0 0 -4 0 m 0 8 a 2 2 0 0 0 4 0 2 2 0 0 0 -4 0" transform="rotate(-180) translate(0 41.81001487604405) rotate(-112.5)" opacity="0.5"></path><path d="m -4 0 a 4 4 0 0 1 8 0 l 0 32 a 4 4 0 0 1 -8 0 l 0 -32 z m 2 -8 m 0 8 a 2 2 0 0 0 4 0 2 2 0 0 0 -4 0 m 0 8 a 2 2 0 0 0 4 0 2 2 0 0 0 -4 0 m 0 8 a 2 2 0 0 0 4 0 2 2 0 0 0 -4 0 m 0 8 a 2 2 0 0 0 4 0 2 2 0 0 0 -4 0 m 0 8 a 2 2 0 0 0 4 0 2 2 0 0 0 -4 0" transform="rotate(-225) translate(0 41.81001487604405) rotate(-112.5)" opacity="0.5"></path><path d="m -4 0 a 4 4 0 0 1 8 0 l 0 32 a 4 4 0 0 1 -8 0 l 0 -32 z m 2 -8 m 0 8 a 2 2 0 0 0 4 0 2 2 0 0 0 -4 0 m 0 8 a 2 2 0 0 0 4 0 2 2 0 0 0 -4 0 m 0 8 a 2 2 0 0 0 4 0 2 2 0 0 0 -4 0 m 0 8 a 2 2 0 0 0 4 0 2 2 0 0 0 -4 0 m 0 8 a 2 2 0 0 0 4 0 2 2 0 0 0 -4 0" transform="rotate(-270) translate(0 41.81001487604405) rotate(-112.5)" opacity="0.5"></path><path d="m -4 0 a 4 4 0 0 1 8 0 l 0 32 a 4 4 0 0 1 -8 0 l 0 -32 z m 2 -8 m 0 8 a 2 2 0 0 0 4 0 2 2 0 0 0 -4 0 m 0 8 a 2 2 0 0 0 4 0 2 2 0 0 0 -4 0 m 0 8 a 2 2 0 0 0 4 0 2 2 0 0 0 -4 0 m 0 8 a 2 2 0 0 0 4 0 2 2 0 0 0 -4 0 m 0 8 a 2 2 0 0 0 4 0 2 2 0 0 0 -4 0" transform="rotate(-270) translate(0 41.81001487604405) rotate(-157.5)" opacity="0.5"></path><path d="m -4 0 a 4 4 0 0 1 8 0 l 0 32 a 4 4 0 0 1 -8 0 l 0 -32 z m 2 -8 m 0 8 a 2 2 0 0 0 4 0 2 2 0 0 0 -4 0 m 0 8 a 2 2 0 0 0 4 0 2 2 0 0 0 -4 0 m 0 8 a 2 2 0 0 0 4 0 2 2 0 0 0 -4 0 m 0 8 a 2 2 0 0 0 4 0 2 2 0 0 0 -4 0 m 0 8 a 2 2 0 0 0 4 0 2 2 0 0 0 -4 0" transform="rotate(-315) translate(0 41.81001487604405) rotate(-112.5)" opacity="0.5"></path></g><g fill="#0f4"><path d="m -4 0 a 4 4 0 0 1 8 0 l 0 40 a 4 4 0 0 1 -8 0 l 0 -40 z m 2 -8 m 0 8 a 2 2 0 0 0 4 0 2 2 0 0 0 -4 0 m 0 8 a 2 2 0 0 0 4 0 2 2 0 0 0 -4 0 m 0 8 a 2 2 0 0 0 4 0 2 2 0 0 0 -4 0 m 0 8 a 2 2 0 0 0 4 0 2 2 0 0 0 -4 0 m 0 8 a 2 2 0 0 0 4 0 2 2 0 0 0 -4 0 m 0 8 a 2 2 0 0 0 4 0 2 2 0 0 0 -4 0" transform="rotate(0) translate(0 41.81001487604405) rotate(-149.36989764584402)" opacity="0.5"></path><path d="m -4 0 a 4 4 0 0 1 8 0 l 0 40 a 4 4 0 0 1 -8 0 l 0 -40 z m 2 -8 m 0 8 a 2 2 0 0 0 4 0 2 2 0 0 0 -4 0 m 0 8 a 2 2 0 0 0 4 0 2 2 0 0 0 -4 0 m 0 8 a 2 2 0 0 0 4 0 2 2 0 0 0 -4 0 m 0 8 a 2 2 0 0 0 4 0 2 2 0 0 0 -4 0 m 0 8 a 2 2 0 0 0 4 0 2 2 0 0 0 -4 0 m 0 8 a 2 2 0 0 0 4 0 2 2 0 0 0 -4 0" transform="rotate(-135) translate(0 41.81001487604405) rotate(-202.5) translate(0 32) rotate(143.13010235415598)" opacity="0.5"></path><path d="m -4 0 a 4 4 0 0 1 8 0 l 0 40 a 4 4 0 0 1 -8 0 l 0 -40 z m 2 -8 m 0 8 a 2 2 0 0 0 4 0 2 2 0 0 0 -4 0 m 0 8 a 2 2 0 0 0 4 0 2 2 0 0 0 -4 0 m 0 8 a 2 2 0 0 0 4 0 2 2 0 0 0 -4 0 m 0 8 a 2 2 0 0 0 4 0 2 2 0 0 0 -4 0 m 0 8 a 2 2 0 0 0 4 0 2 2 0 0 0 -4 0 m 0 8 a 2 2 0 0 0 4 0 2 2 0 0 0 -4 0" transform="rotate(-270) translate(0 41.81001487604405) rotate(-157.5) translate(0 32) rotate(216.86989764584402)" opacity="0.5"></path></g><g fill="#f20"><path d="m -4 0 a 4 4 0 0 1 8 0 l 0 48 a 4 4 0 0 1 -8 0 l 0 -48 z m 2 -8 m 0 8 a 2 2 0 0 0 4 0 2 2 0 0 0 -4 0 m 0 8 a 2 2 0 0 0 4 0 2 2 0 0 0 -4 0 m 0 8 a 2 2 0 0 0 4 0 2 2 0 0 0 -4 0 m 0 8 a 2 2 0 0 0 4 0 2 2 0 0 0 -4 0 m 0 8 a 2 2 0 0 0 4 0 2 2 0 0 0 -4 0 m 0 8 a 2 2 0 0 0 4 0 2 2 0 0 0 -4 0 m 0 8 a 2 2 0 0 0 4 0 2 2 0 0 0 -4 0" transform="rotate(-135) translate(0 41.81001487604405) rotate(-202.5) translate(0 32) rotate(115.52877936550931)" opacity="0.5"></path><path d="m -4 0 a 4 4 0 0 1 8 0 l 0 48 a 4 4 0 0 1 -8 0 l 0 -48 z m 2 -8 m 0 8 a 2 2 0 0 0 4 0 2 2 0 0 0 -4 0 m 0 8 a 2 2 0 0 0 4 0 2 2 0 0 0 -4 0 m 0 8 a 2 2 0 0 0 4 0 2 2 0 0 0 -4 0 m 0 8 a 2 2 0 0 0 4 0 2 2 0 0 0 -4 0 m 0 8 a 2 2 0 0 0 4 0 2 2 0 0 0 -4 0 m 0 8 a 2 2 0 0 0 4 0 2 2 0 0 0 -4 0 m 0 8 a 2 2 0 0 0 4 0 2 2 0 0 0 -4 0" transform="rotate(-270) translate(0 41.81001487604405) rotate(-157.5) translate(0 32) rotate(244.4712206344907)" opacity="0.5"></path></g></g></svg>