<svg xmlns="http://www.w3.org/2000/svg" width="333" height="333">
<g transform="translate(166.5,166.5) scale(1 1)">
<g stroke="#08f" stroke-width="5">
<line x1="-60.7437" y1="126.1356" x2="60.7437" y2="126.1356"/>
<line x1="60.7437" y1="126.1356" x2="136.4899" y2="31.1529"/>
<line x1="136.4899" y1="31.1529" x2="109.4564" y2="-87.2886"/>
<line x1="109.4564" y1="-87.2886" x2="0" y2="-140"/>
<line x1="0" y1="-140" x2="-109.4564" y2="-87.2886"/>
<line x1="-109.4564" y1="-87.2886" x2="-136.4899" y2="31.1529"/>
<line x1="-136.4899" y1="31.1529" x2="-60.7437" y2="126.1356"/>
</g>
<g stroke="#0a6" stroke-width="5">
<line x1="109.4564" y1="-87.2886" x2="0" y2="-31.1529"/>
<line x1="0" y1="-31.1529" x2="-109.4564" y2="-87.2886"/>
</g>
<g stroke="#888" stroke-width="1" fill="none">
<line x1="-60.7437" y1="126.1356" x2="-60.7437" y2="31.1529"/>
<line x1="-60.7437" y1="31.1529" x2="-236.4899" y2="31.1529"/>
<line x1="-109.4564" y1="31.1529" x2="-109.4564" y2="-87.2886"/>
<line x1="-109.4564" y1="-31.1529" x2="0" y2="-31.1529"/>
<line x1="0" y1="-31.1529" x2="0" y2="126.1356"/>
<path d="M -36.03875471609677 -48.50824956470232 A 40 40 0 0 0 -40 -31.152899999999995"/>
<path d="M -117.78520594423802 54.6078444740409 A 30 30 0 0 0 -106.4899 31.1529"/>
<path d="M -132.03948132087373 11.654341756363525 A 20 20 0 0 0 -156.4899 31.152900000000002"/>
</g>
<g stroke="none" fill="#888" dominant-baseline="middle" text-anchor="middle">
<text x="-48.7464" y="-42.2789">A</text>
<text x="-100.4511" y="48.5082">B</text>
<text x="-155.1946" y="7.6980">C</text>
<text x="-65.9503" y="136.9472">p1</text>
<text x="65.9503" y="136.9472">p2</text>
<text x="148.1890" y="33.8232">p3</text>
<text x="118.8384" y="-94.7705">p4</text>
<text x="0.0000" y="-152.0000">p5</text>
<text x="-118.8384" y="-94.7705">p6</text>
<text x="-143.9899" y="44.1433">p7</text>
<text x="0.0000" y="-43.1529">q1</text>
<text x="-50.9139" y="24.2700">q2</text>
<text x="-97.1691" y="22.5493">q3</text>
<text x="-98.8498" y="-20.5463">q4</text>
<text x="0.0000" y="141.1356">r1</text>
<text x="-45.5578" y="141.1356">r2</text>
</g>
<g stroke="#f80" stroke-width="5">
<line x1="0" y1="-31.1529" x2="-45.557775" y2="126.1356"/>
</g>
</g>
</svg>