<svg xmlns="http://www.w3.org/2000/svg" width="333" height="333">
<g transform="translate(166.5,166.5) scale(1 1)">
<g stroke="#08f" stroke-width="5">
<line x1="-60.7437" y1="126.1356" x2="60.7437" y2="126.1356"/>
<line x1="60.7437" y1="126.1356" x2="136.4899" y2="31.1529"/>
<line x1="136.4899" y1="31.1529" x2="109.4564" y2="-87.2886"/>
<line x1="109.4564" y1="-87.2886" x2="0" y2="-140"/>
<line x1="0" y1="-140" x2="-109.4564" y2="-87.2886"/>
<line x1="-109.4564" y1="-87.2886" x2="-136.4899" y2="31.1529"/>
<line x1="-136.4899" y1="31.1529" x2="-60.7437" y2="126.1356"/>
</g>
<g stroke="#0a6" stroke-width="5">
<line x1="109.4564" y1="-87.2886" x2="0" y2="-31.1529"/>
<line x1="0" y1="-31.1529" x2="-109.4564" y2="-87.2886"/>
</g>
<g stroke="#888" stroke-width="1" fill="none">
<line x1="-60.7437" y1="126.1356" x2="-60.7437" y2="31.1529"/>
<line x1="-60.7437" y1="31.1529" x2="-236.4899" y2="31.1529"/>
<line x1="-109.4564" y1="31.1529" x2="-109.4564" y2="-87.2886"/>
<line x1="-109.4564" y1="-31.1529" x2="0" y2="-31.1529"/>
<line x1="0" y1="-31.1529" x2="0" y2="126.1356"/>
<path d="M -36.03875471609677 -48.50824956470232 A 40 40 0 0 0 -40 -31.152899999999995"/>
<path d="M -117.78520594423802 54.6078444740409 A 30 30 0 0 0 -106.4899 31.1529"/>
<path d="M -132.03948132087373 11.654341756363525 A 20 20 0 0 0 -156.4899 31.152900000000002"/>
</g>
<g font-family="Verdana" font-size="16" stroke="none" fill="#888" dominant-baseline="middle" text-anchor="middle">
<text x="-48.74639560909119" y="-42.27894669781569">A</text>
<text x="-100.45114528390324" y="48.508249564702325">B</text>
<text x="-155.194594055762" y="7.697955525959092">C</text>
<text x="-68.55360730411604" y="142.35303962224353">p1</text>
<text x="68.55360730411604" y="142.35303962224353">p2</text>
<text x="154.03860241927282" y="35.15827681121366">p3</text>
<text x="123.52936668442453" y="-98.5114164334572">p4</text>
<text x="1.102182119232618e-15" y="-158">p5</text>
<text x="-123.52936668442453" y="-98.51141643345721">p6</text>
<text x="-149.21782206135785" y="43.880822061357854">p7</text>
<text x="1.102182119232618e-15" y="-49.1529">q1</text>
<text x="-48.01577793864214" y="18.424977938642144">q2</text>
<text x="-96.72847793864214" y="18.424977938642144">q3</text>
<text x="-96.72847793864214" y="-18.424977938642144">q4</text>
<text x="1.102182119232618e-15" y="144.1356">r1</text>
<text x="-45.557775" y="144.1356">r2</text>
</g>
<g stroke="#f80" stroke-width="5">
<line x1="0" y1="-31.1529" x2="-45.557775" y2="126.1356"/>
</g>
</g>
</svg>