<svg xmlns="http://www.w3.org/2000/svg" width="333" height="333">
<g transform="translate(166.5,166.5) scale(1 1)">
<g stroke="#08f" stroke-width="5">
<line x1="-47.8828" y1="131.557" x2="47.8828" y2="131.557"/>
<line x1="47.8828" y1="131.557" x2="121.2436" y2="70"/>
<line x1="121.2436" y1="70" x2="137.8731" y2="-24.3107"/>
<line x1="137.8731" y1="-24.3107" x2="89.9903" y2="-107.2462"/>
<line x1="89.9903" y1="-107.2462" x2="0" y2="-140"/>
<line x1="0" y1="-140" x2="-89.9903" y2="-107.2462"/>
<line x1="-89.9903" y1="-107.2462" x2="-137.8731" y2="-24.3107"/>
<line x1="-137.8731" y1="-24.3107" x2="-121.2436" y2="70"/>
<line x1="-121.2436" y1="70" x2="-47.8828" y2="131.557"/>
</g>
<g stroke="#0a6" stroke-width="5">
<line x1="89.9903" y1="-107.2462" x2="0" y2="-70"/>
<line x1="0" y1="-70" x2="-89.9903" y2="-107.2462"/>
</g>
<g stroke="#888" stroke-width="1" fill="none">
<line x1="-47.8828" y1="131.557" x2="-47.8828" y2="70"/>
<line x1="-47.8828" y1="70" x2="-221.24360000000001" y2="70"/>
<line x1="-121.2436" y1="70" x2="-121.2436" y2="-24.3107"/>
<line x1="-121.2436" y1="-24.3107" x2="-237.8731" y2="-24.3107"/>
<line x1="-137.8731" y1="-24.3107" x2="-89.9903" y2="-24.3107"/>
<line x1="-89.9903" y1="-24.3107" x2="-89.9903" y2="-107.2462"/>
<line x1="-89.9903" y1="-70" x2="0" y2="-70"/>
<line x1="0" y1="-70" x2="0" y2="131.557"/>
<path d="M -37.58770483143634 -83.68080573302674 A 40 40 0 0 0 -40 -70"/>
<path d="M -98.26226670643067 89.28362829059617 A 30 30 0 0 0 -91.2436 70"/>
<path d="M -124.7165635533386 50.30384493975584 A 20 20 0 0 0 -141.24360000000001 70"/>
<path d="M -130.3731 -37.30108105676658 A 15 15 0 0 0 -152.8731 -24.310699999999997"/>
</g>
<g font-family="Verdana" font-size="16" stroke="none" fill="#888" dominant-baseline="middle" text-anchor="middle">
<text x="-54.03916257986204" y="148.47146717414634">p1</text>
<text x="54.039162579862044" y="148.47146717414634">p2</text>
<text x="136.8320572681199" y="79">p3</text>
<text x="155.59963955421975" y="-27.436367198004746">p4</text>
<text x="101.56047697435771" y="-121.0349999761416">p5</text>
<text x="1.102182119232618e-15" y="-158">p6</text>
<text x="-101.56047697435771" y="-121.0349999761416">p7</text>
<text x="-150.60102206135784" y="-11.582777938642144">p8</text>
<text x="-133.97152206135786" y="82.72792206135786">p9</text>
<text x="1.102182119232618e-15" y="-88">q1</text>
<text x="-47.8828" y="52">q2</text>
<text x="-108.51567793864214" y="-11.582777938642145">q3</text>
<text x="-77.26237793864215" y="-11.582777938642145">q4</text>
<text x="-77.26237793864215" y="-57.27207793864214">q5</text>
<text x="1.102182119232618e-15" y="149.557">r1</text>
<text x="-30" y="149.557">r2</text>
<text x="-49.2403876506104" y="-78.68240888334653">A</text>
<text x="-83.65589516856366" y="83.68080573302674">B</text>
<text x="-144.22493329356934" y="50.71637170940382">C</text>
<text x="-150.3731" y="-45.96133509461096">D</text>
</g>
<g stroke="#f80" stroke-width="5">
<line x1="0" y1="-70" x2="-30" y2="131.557"/>
</g>
</g>
</svg>