<svg xmlns="http://www.w3.org/2000/svg" width="440" height="440" style="border:1px solid gray;">
<g transform="translate(220,220) scale(1 1)">
<g stroke="#08f" stroke-width="5" stroke-line-join="round">
<line x1="-78.09907304116047" y1="162.17439622243543" x2="78.09907304116047" y2="162.17439622243543"/>
<line x1="78.09907304116047" y1="162.17439622243543" x2="175.48702419272826" y2="40.0537681121366"/>
<line x1="175.48702419272826" y1="40.0537681121366" x2="140.72966684424537" y2="-112.22816433457203"/>
<line x1="140.72966684424537" y1="-112.22816433457203" x2="2.2043642384652358e-14" y2="-180"/>
<line x1="2.2043642384652358e-14" y1="-180" x2="-140.72966684424537" y2="-112.22816433457203"/>
<line x1="-140.72966684424537" y1="-112.22816433457203" x2="-175.48702419272826" y2="40.0537681121366"/>
<line x1="-175.48702419272826" y1="40.0537681121366" x2="-78.09907304116047" y2="162.17439622243543"/>
</g>
<g stroke="#0a6" stroke-width="5">
<line x1="140.72966684424537" y1="-112.22816433457203" x2="2.2043642384652358e-14" y2="-40.0537681121366"/>
<line x1="2.2043642384652358e-14" y1="-40.0537681121366" x2="-140.72966684424537" y2="-112.22816433457203"/>
</g>
<g stroke="#888" stroke-width="1">
<line x1="-78.09907304116047" y1="162.17439622243543" x2="-78.09907304116047" y2="40.0537681121366"/>
<line x1="-78.09907304116047" y1="40.0537681121366" x2="-175.48702419272826" y2="40.0537681121366"/>
<line x1="-140.72966684424537" y1="40.0537681121366" x2="-140.72966684424537" y2="-112.22816433457203"/>
<line x1="-140.72966684424537" y1="-40.0537681121366" x2="2.2043642384652358e-14" y2="-40.0537681121366"/>
<line x1="2.2043642384652358e-14" y1="-40.0537681121366" x2="2.2043642384652358e-14" y2="162.17439622243543"/>
<text x="-83.30567791057116" y="172.98602263726445" dominant-baseline="middle" text-anchor="middle">
A
</text>
<text x="83.30567791057116" y="172.98602263726445" dominant-baseline="middle" text-anchor="middle">
B
</text>
<text x="187.18615913891014" y="42.724019319612374" dominant-baseline="middle" text-anchor="middle">
C
</text>
<text x="150.11164463386174" y="-119.71004195687682" dominant-baseline="middle" text-anchor="middle">
D
</text>
<text x="2.3513218543629183e-14" y="-192" dominant-baseline="middle" text-anchor="middle">
E
</text>
</g>
<g stroke="#f80" stroke-width="5">
<line x1="2.2043642384652358e-14" y1="-40.0537681121366" x2="-58.57430478087035" y2="162.17439622243543"/>
</g>
</g>
</svg>