<?xml version="1.0" encoding="UTF-8" standalone="no"?>
<svg xmlns="http://www.w3.org/2000/svg" width="440" height="440" style="border:1px solid gray;">
 <g id="heptagon" transform="translate(220,40) scale(1 1)">
  <g fill="#08f8" stroke="#008">
   <path id="p8a" d="m -10 0 a 10 10 0 0 1 20 0 l 0 160 a 10 10 0 0 1 -20 0 l 0 -160 z m 5 -20 m 0 20 a 5 5 0 0 0 10 0 5 5 0 0 0 -10 0 m 0 20 a 5 5 0 0 0 10 0 5 5 0 0 0 -10 0 m 0 20 a 5 5 0 0 0 10 0 5 5 0 0 0 -10 0 m 0 20 a 5 5 0 0 0 10 0 5 5 0 0 0 -10 0 m 0 20 a 5 5 0 0 0 10 0 5 5 0 0 0 -10 0 m 0 20 a 5 5 0 0 0 10 0 5 5 0 0 0 -10 0 m 0 20 a 5 5 0 0 0 10 0 5 5 0 0 0 -10 0 m 0 20 a 5 5 0 0 0 10 0 5 5 0 0 0 -10 0 m 0 20 a 5 5 0 0 0 10 0 5 5 0 0 0 -10 0" transform="rotate(64.28571428571428)"></path>
   <path id="p8b" d="m -10 0 a 10 10 0 0 1 20 0 l 0 160 a 10 10 0 0 1 -20 0 l 0 -160 z m 5 -20 m 0 20 a 5 5 0 0 0 10 0 5 5 0 0 0 -10 0 m 0 20 a 5 5 0 0 0 10 0 5 5 0 0 0 -10 0 m 0 20 a 5 5 0 0 0 10 0 5 5 0 0 0 -10 0 m 0 20 a 5 5 0 0 0 10 0 5 5 0 0 0 -10 0 m 0 20 a 5 5 0 0 0 10 0 5 5 0 0 0 -10 0 m 0 20 a 5 5 0 0 0 10 0 5 5 0 0 0 -10 0 m 0 20 a 5 5 0 0 0 10 0 5 5 0 0 0 -10 0 m 0 20 a 5 5 0 0 0 10 0 5 5 0 0 0 -10 0 m 0 20 a 5 5 0 0 0 10 0 5 5 0 0 0 -10 0" transform="rotate(-64.28571428571428)"></path>
   <path id="p8c" d="m -10 0 a 10 10 0 0 1 20 0 l 0 160 a 10 10 0 0 1 -20 0 l 0 -160 z m 5 -20 m 0 20 a 5 5 0 0 0 10 0 5 5 0 0 0 -10 0 m 0 20 a 5 5 0 0 0 10 0 5 5 0 0 0 -10 0 m 0 20 a 5 5 0 0 0 10 0 5 5 0 0 0 -10 0 m 0 20 a 5 5 0 0 0 10 0 5 5 0 0 0 -10 0 m 0 20 a 5 5 0 0 0 10 0 5 5 0 0 0 -10 0 m 0 20 a 5 5 0 0 0 10 0 5 5 0 0 0 -10 0 m 0 20 a 5 5 0 0 0 10 0 5 5 0 0 0 -10 0 m 0 20 a 5 5 0 0 0 10 0 5 5 0 0 0 -10 0 m 0 20 a 5 5 0 0 0 10 0 5 5 0 0 0 -10 0" transform="rotate(64.28571428571428) translate(0 160) rotate(-51.42857142857143)"></path>
   <path id="p8d" d="m -10 0 a 10 10 0 0 1 20 0 l 0 160 a 10 10 0 0 1 -20 0 l 0 -160 z m 5 -20 m 0 20 a 5 5 0 0 0 10 0 5 5 0 0 0 -10 0 m 0 20 a 5 5 0 0 0 10 0 5 5 0 0 0 -10 0 m 0 20 a 5 5 0 0 0 10 0 5 5 0 0 0 -10 0 m 0 20 a 5 5 0 0 0 10 0 5 5 0 0 0 -10 0 m 0 20 a 5 5 0 0 0 10 0 5 5 0 0 0 -10 0 m 0 20 a 5 5 0 0 0 10 0 5 5 0 0 0 -10 0 m 0 20 a 5 5 0 0 0 10 0 5 5 0 0 0 -10 0 m 0 20 a 5 5 0 0 0 10 0 5 5 0 0 0 -10 0 m 0 20 a 5 5 0 0 0 10 0 5 5 0 0 0 -10 0" transform="rotate(-64.28571428571428) translate(0 160) rotate(51.42857142857143)"></path>
   <path id="p8e" d="m -10 0 a 10 10 0 0 1 20 0 l 0 160 a 10 10 0 0 1 -20 0 l 0 -160 z m 5 -20 m 0 20 a 5 5 0 0 0 10 0 5 5 0 0 0 -10 0 m 0 20 a 5 5 0 0 0 10 0 5 5 0 0 0 -10 0 m 0 20 a 5 5 0 0 0 10 0 5 5 0 0 0 -10 0 m 0 20 a 5 5 0 0 0 10 0 5 5 0 0 0 -10 0 m 0 20 a 5 5 0 0 0 10 0 5 5 0 0 0 -10 0 m 0 20 a 5 5 0 0 0 10 0 5 5 0 0 0 -10 0 m 0 20 a 5 5 0 0 0 10 0 5 5 0 0 0 -10 0 m 0 20 a 5 5 0 0 0 10 0 5 5 0 0 0 -10 0 m 0 20 a 5 5 0 0 0 10 0 5 5 0 0 0 -10 0" transform="rotate(64.28571428571428) translate(0 160) rotate(-51.42857142857143) translate(0 160) rotate(-51.42857142857143)"></path>
   <path id="p8f" d="m -10 0 a 10 10 0 0 1 20 0 l 0 160 a 10 10 0 0 1 -20 0 l 0 -160 z m 5 -20 m 0 20 a 5 5 0 0 0 10 0 5 5 0 0 0 -10 0 m 0 20 a 5 5 0 0 0 10 0 5 5 0 0 0 -10 0 m 0 20 a 5 5 0 0 0 10 0 5 5 0 0 0 -10 0 m 0 20 a 5 5 0 0 0 10 0 5 5 0 0 0 -10 0 m 0 20 a 5 5 0 0 0 10 0 5 5 0 0 0 -10 0 m 0 20 a 5 5 0 0 0 10 0 5 5 0 0 0 -10 0 m 0 20 a 5 5 0 0 0 10 0 5 5 0 0 0 -10 0 m 0 20 a 5 5 0 0 0 10 0 5 5 0 0 0 -10 0 m 0 20 a 5 5 0 0 0 10 0 5 5 0 0 0 -10 0" transform="rotate(-64.28571428571428) translate(0 160) rotate(51.42857142857143) translate(0 160) rotate(51.42857142857143)"></path>
   <path id="p8g" d="m -10 0 a 10 10 0 0 1 20 0 l 0 160 a 10 10 0 0 1 -20 0 l 0 -160 z m 5 -20 m 0 20 a 5 5 0 0 0 10 0 5 5 0 0 0 -10 0 m 0 20 a 5 5 0 0 0 10 0 5 5 0 0 0 -10 0 m 0 20 a 5 5 0 0 0 10 0 5 5 0 0 0 -10 0 m 0 20 a 5 5 0 0 0 10 0 5 5 0 0 0 -10 0 m 0 20 a 5 5 0 0 0 10 0 5 5 0 0 0 -10 0 m 0 20 a 5 5 0 0 0 10 0 5 5 0 0 0 -10 0 m 0 20 a 5 5 0 0 0 10 0 5 5 0 0 0 -10 0 m 0 20 a 5 5 0 0 0 10 0 5 5 0 0 0 -10 0 m 0 20 a 5 5 0 0 0 10 0 5 5 0 0 0 -10 0" transform="rotate(64.28571428571428) translate(0 160) rotate(-51.42857142857143) translate(0 160) rotate(-51.42857142857143) translate(0 160) rotate(-51.42857142857143)"></path>

   <path id="p8h" d="m -10 0 a 10 10 0 0 1 20 0 l 0 160 a 10 10 0 0 1 -20 0 l 0 -160 z m 5 -20 m 0 20 a 5 5 0 0 0 10 0 5 5 0 0 0 -10 0 m 0 20 a 5 5 0 0 0 10 0 5 5 0 0 0 -10 0 m 0 20 a 5 5 0 0 0 10 0 5 5 0 0 0 -10 0 m 0 20 a 5 5 0 0 0 10 0 5 5 0 0 0 -10 0 m 0 20 a 5 5 0 0 0 10 0 5 5 0 0 0 -10 0 m 0 20 a 5 5 0 0 0 10 0 5 5 0 0 0 -10 0 m 0 20 a 5 5 0 0 0 10 0 5 5 0 0 0 -10 0 m 0 20 a 5 5 0 0 0 10 0 5 5 0 0 0 -10 0 m 0 20 a 5 5 0 0 0 10 0 5 5 0 0 0 -10 0" transform="rotate(12.857142857142861)"></path>
   <path id="p8i" d="m -10 0 a 10 10 0 0 1 20 0 l 0 160 a 10 10 0 0 1 -20 0 l 0 -160 z m 5 -20 m 0 20 a 5 5 0 0 0 10 0 5 5 0 0 0 -10 0 m 0 20 a 5 5 0 0 0 10 0 5 5 0 0 0 -10 0 m 0 20 a 5 5 0 0 0 10 0 5 5 0 0 0 -10 0 m 0 20 a 5 5 0 0 0 10 0 5 5 0 0 0 -10 0 m 0 20 a 5 5 0 0 0 10 0 5 5 0 0 0 -10 0 m 0 20 a 5 5 0 0 0 10 0 5 5 0 0 0 -10 0 m 0 20 a 5 5 0 0 0 10 0 5 5 0 0 0 -10 0 m 0 20 a 5 5 0 0 0 10 0 5 5 0 0 0 -10 0 m 0 20 a 5 5 0 0 0 10 0 5 5 0 0 0 -10 0" transform="rotate(-12.857142857142861)"></path>
   <path id="p8j" d="m -10 0 a 10 10 0 0 1 20 0 l 0 160 a 10 10 0 0 1 -20 0 l 0 -160 z m 5 -20 m 0 20 a 5 5 0 0 0 10 0 5 5 0 0 0 -10 0 m 0 20 a 5 5 0 0 0 10 0 5 5 0 0 0 -10 0 m 0 20 a 5 5 0 0 0 10 0 5 5 0 0 0 -10 0 m 0 20 a 5 5 0 0 0 10 0 5 5 0 0 0 -10 0 m 0 20 a 5 5 0 0 0 10 0 5 5 0 0 0 -10 0 m 0 20 a 5 5 0 0 0 10 0 5 5 0 0 0 -10 0 m 0 20 a 5 5 0 0 0 10 0 5 5 0 0 0 -10 0 m 0 20 a 5 5 0 0 0 10 0 5 5 0 0 0 -10 0 m 0 20 a 5 5 0 0 0 10 0 5 5 0 0 0 -10 0" transform="rotate(12.857142857142861) translate(0 160) rotate(51.42857142857143)"></path>
   <path id="p8k" d="m -10 0 a 10 10 0 0 1 20 0 l 0 160 a 10 10 0 0 1 -20 0 l 0 -160 z m 5 -20 m 0 20 a 5 5 0 0 0 10 0 5 5 0 0 0 -10 0 m 0 20 a 5 5 0 0 0 10 0 5 5 0 0 0 -10 0 m 0 20 a 5 5 0 0 0 10 0 5 5 0 0 0 -10 0 m 0 20 a 5 5 0 0 0 10 0 5 5 0 0 0 -10 0 m 0 20 a 5 5 0 0 0 10 0 5 5 0 0 0 -10 0 m 0 20 a 5 5 0 0 0 10 0 5 5 0 0 0 -10 0 m 0 20 a 5 5 0 0 0 10 0 5 5 0 0 0 -10 0 m 0 20 a 5 5 0 0 0 10 0 5 5 0 0 0 -10 0 m 0 20 a 5 5 0 0 0 10 0 5 5 0 0 0 -10 0" transform="rotate(-12.857142857142861) translate(0 160) rotate(-51.42857142857143)"></path>
  </g>
  <g fill="#f808" stroke="#800">
   <path id="p8l" d="m -10 0 a 10 10 0 0 1 20 0 l 0 220 a 10 10 0 0 1 -20 0 l 0 -220 z m 5 -20 m 0 20 a 5 5 0 0 0 10 0 5 5 0 0 0 -10 0 m 0 20 a 5 5 0 0 0 10 0 5 5 0 0 0 -10 0 m 0 20 a 5 5 0 0 0 10 0 5 5 0 0 0 -10 0 m 0 20 a 5 5 0 0 0 10 0 5 5 0 0 0 -10 0 m 0 20 a 5 5 0 0 0 10 0 5 5 0 0 0 -10 0 m 0 20 a 5 5 0 0 0 10 0 5 5 0 0 0 -10 0 m 0 20 a 5 5 0 0 0 10 0 5 5 0 0 0 -10 0 m 0 20 a 5 5 0 0 0 10 0 5 5 0 0 0 -10 0 m 0 20 a 5 5 0 0 0 10 0 5 5 0 0 0 -10 0 m 0 20 a 5 5 0 0 0 10 0 5 5 0 0 0 -10 0 m 0 20 a 5 5 0 0 0 10 0 5 5 0 0 0 -10 0 m 0 20 a 5 5 0 0 0 10 0 5 5 0 0 0 -10 0" transform="rotate(64.28571428571428) translate(0 160) rotate(-51.42857142857143) translate(0 160) rotate(-51.42857142857143) translate(0 20) rotate(-74.1)"></path>
   <path id="p8m" d="m -10 0 a 10 10 0 0 1 20 0 l 0 220 a 10 10 0 0 1 -20 0 l 0 -220 z m 5 -20 m 0 20 a 5 5 0 0 0 10 0 5 5 0 0 0 -10 0 m 0 20 a 5 5 0 0 0 10 0 5 5 0 0 0 -10 0 m 0 20 a 5 5 0 0 0 10 0 5 5 0 0 0 -10 0 m 0 20 a 5 5 0 0 0 10 0 5 5 0 0 0 -10 0 m 0 20 a 5 5 0 0 0 10 0 5 5 0 0 0 -10 0 m 0 20 a 5 5 0 0 0 10 0 5 5 0 0 0 -10 0 m 0 20 a 5 5 0 0 0 10 0 5 5 0 0 0 -10 0 m 0 20 a 5 5 0 0 0 10 0 5 5 0 0 0 -10 0 m 0 20 a 5 5 0 0 0 10 0 5 5 0 0 0 -10 0 m 0 20 a 5 5 0 0 0 10 0 5 5 0 0 0 -10 0 m 0 20 a 5 5 0 0 0 10 0 5 5 0 0 0 -10 0 m 0 20 a 5 5 0 0 0 10 0 5 5 0 0 0 -10 0" transform="rotate(64.28571428571428) translate(0 160) rotate(-51.42857142857143) translate(0 160) rotate(-51.42857142857143) translate(0 140) rotate(-105.7)"></path>
   <path id="p8n" d="m -10 0 a 10 10 0 0 1 20 0 l 0 220 a 10 10 0 0 1 -20 0 l 0 -220 z m 5 -20 m 0 20 a 5 5 0 0 0 10 0 5 5 0 0 0 -10 0 m 0 20 a 5 5 0 0 0 10 0 5 5 0 0 0 -10 0 m 0 20 a 5 5 0 0 0 10 0 5 5 0 0 0 -10 0 m 0 20 a 5 5 0 0 0 10 0 5 5 0 0 0 -10 0 m 0 20 a 5 5 0 0 0 10 0 5 5 0 0 0 -10 0 m 0 20 a 5 5 0 0 0 10 0 5 5 0 0 0 -10 0 m 0 20 a 5 5 0 0 0 10 0 5 5 0 0 0 -10 0 m 0 20 a 5 5 0 0 0 10 0 5 5 0 0 0 -10 0 m 0 20 a 5 5 0 0 0 10 0 5 5 0 0 0 -10 0 m 0 20 a 5 5 0 0 0 10 0 5 5 0 0 0 -10 0 m 0 20 a 5 5 0 0 0 10 0 5 5 0 0 0 -10 0 m 0 20 a 5 5 0 0 0 10 0 5 5 0 0 0 -10 0" transform="rotate(-64.28571428571428) translate(0 160) rotate(51.42857142857143) translate(0 160) rotate(51.42857142857143) translate(0 20) rotate(+74.1)"></path>
   <path id="p8o" d="m -10 0 a 10 10 0 0 1 20 0 l 0 220 a 10 10 0 0 1 -20 0 l 0 -220 z m 5 -20 m 0 20 a 5 5 0 0 0 10 0 5 5 0 0 0 -10 0 m 0 20 a 5 5 0 0 0 10 0 5 5 0 0 0 -10 0 m 0 20 a 5 5 0 0 0 10 0 5 5 0 0 0 -10 0 m 0 20 a 5 5 0 0 0 10 0 5 5 0 0 0 -10 0 m 0 20 a 5 5 0 0 0 10 0 5 5 0 0 0 -10 0 m 0 20 a 5 5 0 0 0 10 0 5 5 0 0 0 -10 0 m 0 20 a 5 5 0 0 0 10 0 5 5 0 0 0 -10 0 m 0 20 a 5 5 0 0 0 10 0 5 5 0 0 0 -10 0 m 0 20 a 5 5 0 0 0 10 0 5 5 0 0 0 -10 0 m 0 20 a 5 5 0 0 0 10 0 5 5 0 0 0 -10 0 m 0 20 a 5 5 0 0 0 10 0 5 5 0 0 0 -10 0 m 0 20 a 5 5 0 0 0 10 0 5 5 0 0 0 -10 0" transform="rotate(-64.28571428571428) translate(0 160) rotate(51.42857142857143) translate(0 160) rotate(51.42857142857143) translate(0 140) rotate(+105.7)"></path>
  </g>

 </g>
</svg>