<svg xmlns="http://www.w3.org/2000/svg" width="440" height="440" style="border:1px solid gray;">
 <g id="nonagon1" transform="translate(220,40) scale(1 1)">
  <g fill="#c0c" stroke="#800">
   <path id="pd1" d="m -9 0 a 9 9 0 0 1 18 0 l 0 126 a 9 9 0 0 1 -18 0 l 0 -126 z m 4.5 -18 m 0 18 a 4.5 4.5 0 0 0 9 0 4.5 4.5 0 0 0 -9 0 m 0 18 m 0 18 m 0 18 m 0 18 m 0 18 m 0 18 m 0 18 a 4.5 4.5 0 0 0 9 0 4.5 4.5 0 0 0 -9 0" transform="rotate(-30)"></path><path id="pd2" d="m -9 0 a 9 9 0 0 1 18 0 l 0 126 a 9 9 0 0 1 -18 0 l 0 -126 z m 4.5 -18 m 0 18 a 4.5 4.5 0 0 0 9 0 4.5 4.5 0 0 0 -9 0 m 0 18 m 0 18 m 0 18 m 0 18 m 0 18 m 0 18 m 0 18 a 4.5 4.5 0 0 0 9 0 4.5 4.5 0 0 0 -9 0" transform="rotate(70) translate(0 126) rotate(-140)"></path><path id="pd3" d="m -9 0 a 9 9 0 0 1 18 0 l 0 126 a 9 9 0 0 1 -18 0 l 0 -126 z m 4.5 -18 m 0 18 a 4.5 4.5 0 0 0 9 0 4.5 4.5 0 0 0 -9 0 m 0 18 m 0 18 m 0 18 m 0 18 m 0 18 m 0 18 m 0 18 a 4.5 4.5 0 0 0 9 0 4.5 4.5 0 0 0 -9 0" transform="rotate(70) translate(0 126) rotate(-40) translate(0 126) rotate(-140)"></path>
   <path id="pd4" d="m -9 0 a 9 9 0 0 1 18 0 l 0 126 a 9 9 0 0 1 -18 0 l 0 -126 z m 4.5 -18 m 0 18 a 4.5 4.5 0 0 0 9 0 4.5 4.5 0 0 0 -9 0 m 0 18 m 0 18 m 0 18 m 0 18 m 0 18 m 0 18 m 0 18 a 4.5 4.5 0 0 0 9 0 4.5 4.5 0 0 0 -9 0" transform="rotate(70) translate(0 126) rotate(-40) translate(0 126) rotate(-40) translate(0 126) rotate(-140)"></path><path id="pd5" d="m -9 0 a 9 9 0 0 1 18 0 l 0 126 a 9 9 0 0 1 -18 0 l 0 -126 z m 4.5 -18 m 0 18 a 4.5 4.5 0 0 0 9 0 4.5 4.5 0 0 0 -9 0 m 0 18 m 0 18 m 0 18 m 0 18 m 0 18 m 0 18 m 0 18 a 4.5 4.5 0 0 0 9 0 4.5 4.5 0 0 0 -9 0" transform="rotate(70) translate(0 126) rotate(-40) translate(0 126) rotate(-40) translate(0 126) rotate(-40) translate(0 126) rotate(-140)"></path><path id="pd6" d="m -9 0 a 9 9 0 0 1 18 0 l 0 126 a 9 9 0 0 1 -18 0 l 0 -126 z m 4.5 -18 m 0 18 a 4.5 4.5 0 0 0 9 0 4.5 4.5 0 0 0 -9 0 m 0 18 m 0 18 m 0 18 m 0 18 m 0 18 m 0 18 m 0 18 a 4.5 4.5 0 0 0 9 0 4.5 4.5 0 0 0 -9 0" transform="rotate(70) translate(0 126) rotate(-40) translate(0 126) rotate(-40) translate(0 126) rotate(-40) translate(0 126) rotate(-40) translate(0 126) rotate(-140)"></path>
   <path id="pd7" d="m -9 0 a 9 9 0 0 1 18 0 l 0 126 a 9 9 0 0 1 -18 0 l 0 -126 z m 4.5 -18 m 0 18 a 4.5 4.5 0 0 0 9 0 4.5 4.5 0 0 0 -9 0 m 0 18 m 0 18 m 0 18 m 0 18 m 0 18 m 0 18 m 0 18 a 4.5 4.5 0 0 0 9 0 4.5 4.5 0 0 0 -9 0" transform="rotate(70) translate(0 126) rotate(-40) translate(0 126) rotate(-40) translate(0 126) rotate(-40) translate(0 126) rotate(-40) translate(0 126) rotate(-40) translate(0 126) rotate(-140)"></path><path id="pd8" d="m -9 0 a 9 9 0 0 1 18 0 l 0 126 a 9 9 0 0 1 -18 0 l 0 -126 z m 4.5 -18 m 0 18 a 4.5 4.5 0 0 0 9 0 4.5 4.5 0 0 0 -9 0 m 0 18 m 0 18 m 0 18 m 0 18 m 0 18 m 0 18 m 0 18 a 4.5 4.5 0 0 0 9 0 4.5 4.5 0 0 0 -9 0" transform="rotate(70) translate(0 126) rotate(-40) translate(0 126) rotate(-40) translate(0 126) rotate(-40) translate(0 126) rotate(-40) translate(0 126) rotate(-40) translate(0 126) rotate(-40) translate(0 126) rotate(-140)"></path><path id="pd9" d="m -9 0 a 9 9 0 0 1 18 0 l 0 126 a 9 9 0 0 1 -18 0 l 0 -126 z m 4.5 -18 m 0 18 a 4.5 4.5 0 0 0 9 0 4.5 4.5 0 0 0 -9 0 m 0 18 m 0 18 m 0 18 m 0 18 m 0 18 m 0 18 m 0 18 a 4.5 4.5 0 0 0 9 0 4.5 4.5 0 0 0 -9 0" transform="rotate(70) translate(0 126) rotate(-40) translate(0 126) rotate(-40) translate(0 126) rotate(-40) translate(0 126) rotate(-40) translate(0 126) rotate(-40) translate(0 126) rotate(-40) translate(0 126) rotate(-40) translate(0 126) rotate(-140)"></path>
  </g>
  <g fill="#08f" stroke="#008">
   <path id="pa1" d="m -9 0 a 9 9 0 0 1 18 0 l 0 126 a 9 9 0 0 1 -18 0 l 0 -126 z m 4.5 -18 m 0 18 a 4.5 4.5 0 0 0 9 0 4.5 4.5 0 0 0 -9 0 m 0 18 m 0 18 m 0 18 m 0 18 m 0 18 m 0 18 m 0 18 a 4.5 4.5 0 0 0 9 0 4.5 4.5 0 0 0 -9 0" transform="rotate(70)"></path><path id="pa2" d="m -9 0 a 9 9 0 0 1 18 0 l 0 126 a 9 9 0 0 1 -18 0 l 0 -126 z m 4.5 -18 m 0 18 a 4.5 4.5 0 0 0 9 0 4.5 4.5 0 0 0 -9 0 m 0 18 m 0 18 m 0 18 m 0 18 m 0 18 m 0 18 m 0 18 a 4.5 4.5 0 0 0 9 0 4.5 4.5 0 0 0 -9 0" transform="rotate(70) translate(0 126) rotate(-40) translate(0 126) rotate(-40) translate(0 126) rotate(-40)"></path><path id="pa3" d="m -9 0 a 9 9 0 0 1 18 0 l 0 126 a 9 9 0 0 1 -18 0 l 0 -126 z m 4.5 -18 m 0 18 a 4.5 4.5 0 0 0 9 0 4.5 4.5 0 0 0 -9 0 m 0 18 m 0 18 m 0 18 m 0 18 m 0 18 m 0 18 m 0 18 a 4.5 4.5 0 0 0 9 0 4.5 4.5 0 0 0 -9 0" transform="rotate(70) translate(0 126) rotate(-40) translate(0 126) rotate(-40) translate(0 126) rotate(-40) translate(0 126) rotate(-40) translate(0 126) rotate(-40) translate(0 126) rotate(-40)"></path>
   <path id="pa4" d="m -9 0 a 9 9 0 0 1 18 0 l 0 126 a 9 9 0 0 1 -18 0 l 0 -126 z m 4.5 -18 m 0 18 a 4.5 4.5 0 0 0 9 0 4.5 4.5 0 0 0 -9 0 m 0 18 m 0 18 m 0 18 m 0 18 m 0 18 m 0 18 m 0 18 a 4.5 4.5 0 0 0 9 0 4.5 4.5 0 0 0 -9 0" transform="rotate(70) translate(0 126) rotate(-40) translate(0 126) rotate(-80)"></path><path id="pa5" d="m -9 0 a 9 9 0 0 1 18 0 l 0 126 a 9 9 0 0 1 -18 0 l 0 -126 z m 4.5 -18 m 0 18 a 4.5 4.5 0 0 0 9 0 4.5 4.5 0 0 0 -9 0 m 0 18 m 0 18 m 0 18 m 0 18 m 0 18 m 0 18 m 0 18 a 4.5 4.5 0 0 0 9 0 4.5 4.5 0 0 0 -9 0" transform="rotate(70) translate(0 126) rotate(-40) translate(0 126) rotate(-40) translate(0 126) rotate(-40) translate(0 126) rotate(-40) translate(0 126) rotate(-80)"></path><path id="pa6" d="m -9 0 a 9 9 0 0 1 18 0 l 0 126 a 9 9 0 0 1 -18 0 l 0 -126 z m 4.5 -18 m 0 18 a 4.5 4.5 0 0 0 9 0 4.5 4.5 0 0 0 -9 0 m 0 18 m 0 18 m 0 18 m 0 18 m 0 18 m 0 18 m 0 18 a 4.5 4.5 0 0 0 9 0 4.5 4.5 0 0 0 -9 0" transform="rotate(70) translate(0 126) rotate(-40) translate(0 126) rotate(-40) translate(0 126) rotate(-40) translate(0 126) rotate(-40) translate(0 126) rotate(-40) translate(0 126) rotate(-40) translate(0 126) rotate(-40) translate(0 126) rotate(-80)"></path>
   <path id="pa7" d="m -9 0 a 9 9 0 0 1 18 0 l 0 126 a 9 9 0 0 1 -18 0 l 0 -126 z m 4.5 -18 m 0 18 a 4.5 4.5 0 0 0 9 0 4.5 4.5 0 0 0 -9 0 m 0 18 m 0 18 m 0 18 m 0 18 m 0 18 m 0 18 m 0 18 a 4.5 4.5 0 0 0 9 0 4.5 4.5 0 0 0 -9 0" transform="rotate(30) translate(0 126) rotate(-20) translate(0 126) rotate(-80) translate(0 126) rotate(-80)"></path><path id="pa8" d="m -9 0 a 9 9 0 0 1 18 0 l 0 126 a 9 9 0 0 1 -18 0 l 0 -126 z m 4.5 -18 m 0 18 a 4.5 4.5 0 0 0 9 0 4.5 4.5 0 0 0 -9 0 m 0 18 m 0 18 m 0 18 m 0 18 m 0 18 m 0 18 m 0 18 a 4.5 4.5 0 0 0 9 0 4.5 4.5 0 0 0 -9 0" transform="rotate(30) translate(0 126) rotate(-20) translate(0 126) rotate(-80) translate(0 126) rotate(-80) translate(0 126) rotate(-80) translate(0 126) rotate(-80) translate(0 126) rotate(-80)"></path><path id="pa9" d="m -9 0 a 9 9 0 0 1 18 0 l 0 126 a 9 9 0 0 1 -18 0 l 0 -126 z m 4.5 -18 m 0 18 a 4.5 4.5 0 0 0 9 0 4.5 4.5 0 0 0 -9 0 m 0 18 m 0 18 m 0 18 m 0 18 m 0 18 m 0 18 m 0 18 a 4.5 4.5 0 0 0 9 0 4.5 4.5 0 0 0 -9 0" transform="rotate(30) translate(0 126) rotate(-20) translate(0 126) rotate(-80) translate(0 126) rotate(-80) translate(0 126) rotate(-80) translate(0 126) rotate(-80) translate(0 126) rotate(-80) translate(0 126) rotate(-80) translate(0 126) rotate(-80) translate(0 126) rotate(-80)"></path>
  </g>
  <g fill="#f80" stroke="#800">
   <path id="pb1" d="m -9 0 a 9 9 0 0 1 18 0 l 0 126 a 9 9 0 0 1 -18 0 l 0 -126 z m 4.5 -18 m 0 18 a 4.5 4.5 0 0 0 9 0 4.5 4.5 0 0 0 -9 0 m 0 18 m 0 18 m 0 18 m 0 18 m 0 18 m 0 18 m 0 18 a 4.5 4.5 0 0 0 9 0 4.5 4.5 0 0 0 -9 0" transform="rotate(70) translate(0 126) rotate(-40)"></path><path id="pb2" d="m -9 0 a 9 9 0 0 1 18 0 l 0 126 a 9 9 0 0 1 -18 0 l 0 -126 z m 4.5 -18 m 0 18 a 4.5 4.5 0 0 0 9 0 4.5 4.5 0 0 0 -9 0 m 0 18 m 0 18 m 0 18 m 0 18 m 0 18 m 0 18 m 0 18 a 4.5 4.5 0 0 0 9 0 4.5 4.5 0 0 0 -9 0" transform="rotate(70) translate(0 126) rotate(-40) translate(0 126) rotate(-40) translate(0 126) rotate(-40) translate(0 126) rotate(-40) translate(0 126) rotate(-40) translate(0 126) rotate(-40) translate(0 126) rotate(-40)"></path><path id="pb3" d="m -9 0 a 9 9 0 0 1 18 0 l 0 126 a 9 9 0 0 1 -18 0 l 0 -126 z m 4.5 -18 m 0 18 a 4.5 4.5 0 0 0 9 0 4.5 4.5 0 0 0 -9 0 m 0 18 m 0 18 m 0 18 m 0 18 m 0 18 m 0 18 m 0 18 a 4.5 4.5 0 0 0 9 0 4.5 4.5 0 0 0 -9 0" transform="rotate(70) translate(0 126) rotate(-40) translate(0 126) rotate(-40) translate(0 126) rotate(-40) translate(0 126) rotate(-40)"></path>
   <path id="pb4" d="m -9 0 a 9 9 0 0 1 18 0 l 0 126 a 9 9 0 0 1 -18 0 l 0 -126 z m 4.5 -18 m 0 18 a 4.5 4.5 0 0 0 9 0 4.5 4.5 0 0 0 -9 0 m 0 18 m 0 18 m 0 18 m 0 18 m 0 18 m 0 18 m 0 18 a 4.5 4.5 0 0 0 9 0 4.5 4.5 0 0 0 -9 0" transform="rotate(30)"></path><path id="pb5" d="m -9 0 a 9 9 0 0 1 18 0 l 0 126 a 9 9 0 0 1 -18 0 l 0 -126 z m 4.5 -18 m 0 18 a 4.5 4.5 0 0 0 9 0 4.5 4.5 0 0 0 -9 0 m 0 18 m 0 18 m 0 18 m 0 18 m 0 18 m 0 18 m 0 18 a 4.5 4.5 0 0 0 9 0 4.5 4.5 0 0 0 -9 0" transform="rotate(70) translate(0 126) rotate(-40) translate(0 126) rotate(-40) translate(0 126) rotate(-80)"></path><path id="pb6" d="m -9 0 a 9 9 0 0 1 18 0 l 0 126 a 9 9 0 0 1 -18 0 l 0 -126 z m 4.5 -18 m 0 18 a 4.5 4.5 0 0 0 9 0 4.5 4.5 0 0 0 -9 0 m 0 18 m 0 18 m 0 18 m 0 18 m 0 18 m 0 18 m 0 18 a 4.5 4.5 0 0 0 9 0 4.5 4.5 0 0 0 -9 0" transform="rotate(70) translate(0 126) rotate(-40) translate(0 126) rotate(-40) translate(0 126) rotate(-40) translate(0 126) rotate(-40) translate(0 126) rotate(-40) translate(0 126) rotate(-80)"></path>
   <path id="pb7" d="m -9 0 a 9 9 0 0 1 18 0 l 0 126 a 9 9 0 0 1 -18 0 l 0 -126 z m 4.5 -18 m 0 18 a 4.5 4.5 0 0 0 9 0 4.5 4.5 0 0 0 -9 0 m 0 18 m 0 18 m 0 18 m 0 18 m 0 18 m 0 18 m 0 18 a 4.5 4.5 0 0 0 9 0 4.5 4.5 0 0 0 -9 0" transform="rotate(30) translate(0 126) rotate(-20) translate(0 126) rotate(-80)"></path><path id="pb8" d="m -9 0 a 9 9 0 0 1 18 0 l 0 126 a 9 9 0 0 1 -18 0 l 0 -126 z m 4.5 -18 m 0 18 a 4.5 4.5 0 0 0 9 0 4.5 4.5 0 0 0 -9 0 m 0 18 m 0 18 m 0 18 m 0 18 m 0 18 m 0 18 m 0 18 a 4.5 4.5 0 0 0 9 0 4.5 4.5 0 0 0 -9 0" transform="rotate(30) translate(0 126) rotate(-20) translate(0 126) rotate(-80) translate(0 126) rotate(-80) translate(0 126) rotate(-80) translate(0 126) rotate(-80)"></path><path id="pb9" d="m -9 0 a 9 9 0 0 1 18 0 l 0 126 a 9 9 0 0 1 -18 0 l 0 -126 z m 4.5 -18 m 0 18 a 4.5 4.5 0 0 0 9 0 4.5 4.5 0 0 0 -9 0 m 0 18 m 0 18 m 0 18 m 0 18 m 0 18 m 0 18 m 0 18 a 4.5 4.5 0 0 0 9 0 4.5 4.5 0 0 0 -9 0" transform="rotate(30) translate(0 126) rotate(-20) translate(0 126) rotate(-80) translate(0 126) rotate(-80) translate(0 126) rotate(-80) translate(0 126) rotate(-80) translate(0 126) rotate(-80) translate(0 126) rotate(-80) translate(0 126) rotate(-80)"></path>
  </g>
  <g fill="#0f8" stroke="#080">
   <path id="pc1" d="m -9 0 a 9 9 0 0 1 18 0 l 0 126 a 9 9 0 0 1 -18 0 l 0 -126 z m 4.5 -18 m 0 18 a 4.5 4.5 0 0 0 9 0 4.5 4.5 0 0 0 -9 0 m 0 18 m 0 18 m 0 18 m 0 18 m 0 18 m 0 18 m 0 18 a 4.5 4.5 0 0 0 9 0 4.5 4.5 0 0 0 -9 0" transform="rotate(70) translate(0 126) rotate(-40) translate(0 126) rotate(-40)"></path><path id="pc2" d="m -9 0 a 9 9 0 0 1 18 0 l 0 126 a 9 9 0 0 1 -18 0 l 0 -126 z m 4.5 -18 m 0 18 a 4.5 4.5 0 0 0 9 0 4.5 4.5 0 0 0 -9 0 m 0 18 m 0 18 m 0 18 m 0 18 m 0 18 m 0 18 m 0 18 a 4.5 4.5 0 0 0 9 0 4.5 4.5 0 0 0 -9 0" transform="rotate(70) translate(0 126) rotate(-40) translate(0 126) rotate(-40) translate(0 126) rotate(-40) translate(0 126) rotate(-40) translate(0 126) rotate(-40) translate(0 126) rotate(-40) translate(0 126) rotate(-40) translate(0 126) rotate(-40)"></path><path id="pc3" d="m -9 0 a 9 9 0 0 1 18 0 l 0 126 a 9 9 0 0 1 -18 0 l 0 -126 z m 4.5 -18 m 0 18 a 4.5 4.5 0 0 0 9 0 4.5 4.5 0 0 0 -9 0 m 0 18 m 0 18 m 0 18 m 0 18 m 0 18 m 0 18 m 0 18 a 4.5 4.5 0 0 0 9 0 4.5 4.5 0 0 0 -9 0" transform="rotate(70) translate(0 126) rotate(-40) translate(0 126) rotate(-40) translate(0 126) rotate(-40) translate(0 126) rotate(-40) translate(0 126) rotate(-40)"></path>
   <path id="pc4" d="m -9 0 a 9 9 0 0 1 18 0 l 0 126 a 9 9 0 0 1 -18 0 l 0 -126 z m 4.5 -18 m 0 18 a 4.5 4.5 0 0 0 9 0 4.5 4.5 0 0 0 -9 0 m 0 18 m 0 18 m 0 18 m 0 18 m 0 18 m 0 18 m 0 18 a 4.5 4.5 0 0 0 9 0 4.5 4.5 0 0 0 -9 0" transform="rotate(70) translate(0 126) rotate(-80)"></path><path id="pc5" d="m -9 0 a 9 9 0 0 1 18 0 l 0 126 a 9 9 0 0 1 -18 0 l 0 -126 z m 4.5 -18 m 0 18 a 4.5 4.5 0 0 0 9 0 4.5 4.5 0 0 0 -9 0 m 0 18 m 0 18 m 0 18 m 0 18 m 0 18 m 0 18 m 0 18 a 4.5 4.5 0 0 0 9 0 4.5 4.5 0 0 0 -9 0" transform="rotate(70) translate(0 126) rotate(-40) translate(0 126) rotate(-40) translate(0 126) rotate(-40) translate(0 126) rotate(-80)"></path><path id="pc6" d="m -9 0 a 9 9 0 0 1 18 0 l 0 126 a 9 9 0 0 1 -18 0 l 0 -126 z m 4.5 -18 m 0 18 a 4.5 4.5 0 0 0 9 0 4.5 4.5 0 0 0 -9 0 m 0 18 m 0 18 m 0 18 m 0 18 m 0 18 m 0 18 m 0 18 a 4.5 4.5 0 0 0 9 0 4.5 4.5 0 0 0 -9 0" transform="rotate(70) translate(0 126) rotate(-40) translate(0 126) rotate(-40) translate(0 126) rotate(-40) translate(0 126) rotate(-40) translate(0 126) rotate(-40) translate(0 126) rotate(-40) translate(0 126) rotate(-80)"></path>
   <path id="pc7" d="m -9 0 a 9 9 0 0 1 18 0 l 0 126 a 9 9 0 0 1 -18 0 l 0 -126 z m 4.5 -18 m 0 18 a 4.5 4.5 0 0 0 9 0 4.5 4.5 0 0 0 -9 0 m 0 18 m 0 18 m 0 18 m 0 18 m 0 18 m 0 18 m 0 18 a 4.5 4.5 0 0 0 9 0 4.5 4.5 0 0 0 -9 0" transform="rotate(30) translate(0 126) rotate(-20)"></path><path id="pc8" d="m -9 0 a 9 9 0 0 1 18 0 l 0 126 a 9 9 0 0 1 -18 0 l 0 -126 z m 4.5 -18 m 0 18 a 4.5 4.5 0 0 0 9 0 4.5 4.5 0 0 0 -9 0 m 0 18 m 0 18 m 0 18 m 0 18 m 0 18 m 0 18 m 0 18 a 4.5 4.5 0 0 0 9 0 4.5 4.5 0 0 0 -9 0" transform="rotate(30) translate(0 126) rotate(-20) translate(0 126) rotate(-80) translate(0 126) rotate(-80) translate(0 126) rotate(-80)"></path><path id="pc9" d="m -9 0 a 9 9 0 0 1 18 0 l 0 126 a 9 9 0 0 1 -18 0 l 0 -126 z m 4.5 -18 m 0 18 a 4.5 4.5 0 0 0 9 0 4.5 4.5 0 0 0 -9 0 m 0 18 m 0 18 m 0 18 m 0 18 m 0 18 m 0 18 m 0 18 a 4.5 4.5 0 0 0 9 0 4.5 4.5 0 0 0 -9 0" transform="rotate(30) translate(0 126) rotate(-20) translate(0 126) rotate(-80) translate(0 126) rotate(-80) translate(0 126) rotate(-80) translate(0 126) rotate(-80) translate(0 126) rotate(-80) translate(0 126) rotate(-80)"></path>
  </g>
 </g>
</svg>