<svg xmlns="http://www.w3.org/2000/svg" width="340" height="340">
 <g id="heptagon2" transform="translate(170,40) scale(1 1)">
  <g fill="#08f" fill-opacity="0.5" stroke="#008">
   <path id="p3a" d="m -10 0 a 10 10 0 0 1 20 0 l 0 120 a 10 10 0 0 1 -20 0 l 0 -120 z m 5 -20 m 0 20 a 5 5 0 0 0 10 0 5 5 0 0 0 -10 0 m 0 20 m 0 20 a 5 5 0 0 0 10 0 5 5 0 0 0 -10 0 m 0 20 m 0 20 a 5 5 0 0 0 10 0 5 5 0 0 0 -10 0 m 0 20 m 0 20 a 5 5 0 0 0 10 0 5 5 0 0 0 -10 0" transform="rotate(64.28571428571428)"></path>
   <path id="p3b" d="m -10 0 a 10 10 0 0 1 20 0 l 0 120 a 10 10 0 0 1 -20 0 l 0 -120 z m 5 -20 m 0 20 a 5 5 0 0 0 10 0 5 5 0 0 0 -10 0 m 0 20 m 0 20 a 5 5 0 0 0 10 0 5 5 0 0 0 -10 0 m 0 20 m 0 20 a 5 5 0 0 0 10 0 5 5 0 0 0 -10 0 m 0 20 m 0 20 a 5 5 0 0 0 10 0 5 5 0 0 0 -10 0" transform="rotate(-64.28571428571428)"></path>
   <path id="p3c" d="m -10 0 a 10 10 0 0 1 20 0 l 0 120 a 10 10 0 0 1 -20 0 l 0 -120 z m 5 -20 m 0 20 a 5 5 0 0 0 10 0 5 5 0 0 0 -10 0 m 0 20 m 0 20 a 5 5 0 0 0 10 0 5 5 0 0 0 -10 0 m 0 20 m 0 20 a 5 5 0 0 0 10 0 5 5 0 0 0 -10 0 m 0 20 m 0 20 a 5 5 0 0 0 10 0 5 5 0 0 0 -10 0" transform="rotate(64.28571428571428) translate(0 120) rotate(-51.42857142857143)"></path>
   <path id="p3d" d="m -10 0 a 10 10 0 0 1 20 0 l 0 120 a 10 10 0 0 1 -20 0 l 0 -120 z m 5 -20 m 0 20 a 5 5 0 0 0 10 0 5 5 0 0 0 -10 0 m 0 20 m 0 20 a 5 5 0 0 0 10 0 5 5 0 0 0 -10 0 m 0 20 m 0 20 a 5 5 0 0 0 10 0 5 5 0 0 0 -10 0 m 0 20 m 0 20 a 5 5 0 0 0 10 0 5 5 0 0 0 -10 0" transform="rotate(-64.28571428571428) translate(0 120) rotate(51.42857142857143)"></path>
   <path id="p3e" d="m -10 0 a 10 10 0 0 1 20 0 l 0 120 a 10 10 0 0 1 -20 0 l 0 -120 z m 5 -20 m 0 20 a 5 5 0 0 0 10 0 5 5 0 0 0 -10 0 m 0 20 m 0 20 a 5 5 0 0 0 10 0 5 5 0 0 0 -10 0 m 0 20 m 0 20 a 5 5 0 0 0 10 0 5 5 0 0 0 -10 0 m 0 20 m 0 20 a 5 5 0 0 0 10 0 5 5 0 0 0 -10 0" transform="rotate(64.28571428571428) translate(0 120) rotate(-51.42857142857143) translate(0 120) rotate(-51.42857142857143)"></path>
   <path id="p3f" d="m -10 0 a 10 10 0 0 1 20 0 l 0 120 a 10 10 0 0 1 -20 0 l 0 -120 z m 5 -20 m 0 20 a 5 5 0 0 0 10 0 5 5 0 0 0 -10 0 m 0 20 m 0 20 a 5 5 0 0 0 10 0 5 5 0 0 0 -10 0 m 0 20 m 0 20 a 5 5 0 0 0 10 0 5 5 0 0 0 -10 0 m 0 20 m 0 20 a 5 5 0 0 0 10 0 5 5 0 0 0 -10 0" transform="rotate(-64.28571428571428) translate(0 120) rotate(51.42857142857143) translate(0 120) rotate(51.42857142857143)"></path>
   <path id="p3g" d="m -10 0 a 10 10 0 0 1 20 0 l 0 120 a 10 10 0 0 1 -20 0 l 0 -120 z m 5 -20 m 0 20 a 5 5 0 0 0 10 0 5 5 0 0 0 -10 0 m 0 20 m 0 20 a 5 5 0 0 0 10 0 5 5 0 0 0 -10 0 m 0 20 m 0 20 a 5 5 0 0 0 10 0 5 5 0 0 0 -10 0 m 0 20 m 0 20 a 5 5 0 0 0 10 0 5 5 0 0 0 -10 0" transform="rotate(64.28571428571428) translate(0 120) rotate(-51.42857142857143) translate(0 120) rotate(-51.42857142857143) translate(0 120) rotate(-51.42857142857143)"></path>

   <path id="p3h" d="m -10 0 a 10 10 0 0 1 20 0 l 0 120 a 10 10 0 0 1 -20 0 l 0 -120 z m 5 -20 m 0 20 a 5 5 0 0 0 10 0 5 5 0 0 0 -10 0 m 0 20 m 0 20 a 5 5 0 0 0 10 0 5 5 0 0 0 -10 0 m 0 20 m 0 20 a 5 5 0 0 0 10 0 5 5 0 0 0 -10 0 m 0 20 m 0 20 a 5 5 0 0 0 10 0 5 5 0 0 0 -10 0" transform="rotate(12.857142857142861)"></path>
   <path id="p3i" d="m -10 0 a 10 10 0 0 1 20 0 l 0 120 a 10 10 0 0 1 -20 0 l 0 -120 z m 5 -20 m 0 20 a 5 5 0 0 0 10 0 5 5 0 0 0 -10 0 m 0 20 m 0 20 a 5 5 0 0 0 10 0 5 5 0 0 0 -10 0 m 0 20 m 0 20 a 5 5 0 0 0 10 0 5 5 0 0 0 -10 0 m 0 20 m 0 20 a 5 5 0 0 0 10 0 5 5 0 0 0 -10 0" transform="rotate(-12.857142857142861)"></path>
   <path id="p3j" d="m -10 0 a 10 10 0 0 1 20 0 l 0 120 a 10 10 0 0 1 -20 0 l 0 -120 z m 5 -20 m 0 20 a 5 5 0 0 0 10 0 5 5 0 0 0 -10 0 m 0 20 m 0 20 a 5 5 0 0 0 10 0 5 5 0 0 0 -10 0 m 0 20 m 0 20 a 5 5 0 0 0 10 0 5 5 0 0 0 -10 0 m 0 20 m 0 20 a 5 5 0 0 0 10 0 5 5 0 0 0 -10 0" transform="rotate(12.857142857142861) translate(0 120) rotate(51.42857142857143)"></path>
   <path id="p3k" d="m -10 0 a 10 10 0 0 1 20 0 l 0 120 a 10 10 0 0 1 -20 0 l 0 -120 z m 5 -20 m 0 20 a 5 5 0 0 0 10 0 5 5 0 0 0 -10 0 m 0 20 m 0 20 a 5 5 0 0 0 10 0 5 5 0 0 0 -10 0 m 0 20 m 0 20 a 5 5 0 0 0 10 0 5 5 0 0 0 -10 0 m 0 20 m 0 20 a 5 5 0 0 0 10 0 5 5 0 0 0 -10 0" transform="rotate(-12.857142857142861) translate(0 120) rotate(-51.42857142857143)"></path>
  </g>
  <g fill="#f80" fill-opacity="0.5" stroke="#800">
   <path id="p4a" d="m -10 0 a 10 10 0 0 1 20 0 l 0 160 a 10 10 0 0 1 -20 0 l 0 -160 z m 5 -20 m 0 20 a 5 5 0 0 0 10 0 5 5 0 0 0 -10 0 m 0 20 m 0 20 a 5 5 0 0 0 10 0 5 5 0 0 0 -10 0 m 0 20 m 0 20 a 5 5 0 0 0 10 0 5 5 0 0 0 -10 0 m 0 20 m 0 20 a 5 5 0 0 0 10 0 5 5 0 0 0 -10 0 m 0 20 m 0 20 a 5 5 0 0 0 10 0 5 5 0 0 0 -10 0" transform="rotate(64.28571428571428) translate(0 120) rotate(-51.42857142857143) translate(0 120) rotate(-51.42857142857143) translate(0 40) rotate(-82.9)"></path>
   <path id="p4b" d="m -10 0 a 10 10 0 0 1 20 0 l 0 160 a 10 10 0 0 1 -20 0 l 0 -160 z m 5 -20 m 0 20 a 5 5 0 0 0 10 0 5 5 0 0 0 -10 0 m 0 20 m 0 20 a 5 5 0 0 0 10 0 5 5 0 0 0 -10 0 m 0 20 m 0 20 a 5 5 0 0 0 10 0 5 5 0 0 0 -10 0 m 0 20 m 0 20 a 5 5 0 0 0 10 0 5 5 0 0 0 -10 0 m 0 20 m 0 20 a 5 5 0 0 0 10 0 5 5 0 0 0 -10 0" transform="rotate(64.28571428571428) translate(0 120) rotate(-51.42857142857143) translate(0 120) rotate(-51.42857142857143) translate(0 80) rotate(-97.17)"></path>
   <path id="p4c" d="m -10 0 a 10 10 0 0 1 20 0 l 0 160 a 10 10 0 0 1 -20 0 l 0 -160 z m 5 -20 m 0 20 a 5 5 0 0 0 10 0 5 5 0 0 0 -10 0 m 0 20 m 0 20 a 5 5 0 0 0 10 0 5 5 0 0 0 -10 0 m 0 20 m 0 20 a 5 5 0 0 0 10 0 5 5 0 0 0 -10 0 m 0 20 m 0 20 a 5 5 0 0 0 10 0 5 5 0 0 0 -10 0 m 0 20 m 0 20 a 5 5 0 0 0 10 0 5 5 0 0 0 -10 0" transform="rotate(-64.28571428571428) translate(0 120) rotate(51.42857142857143) translate(0 120) rotate(51.42857142857143) translate(0 40) rotate(82.9)"></path>
   <path id="p4d" d="m -10 0 a 10 10 0 0 1 20 0 l 0 160 a 10 10 0 0 1 -20 0 l 0 -160 z m 5 -20 m 0 20 a 5 5 0 0 0 10 0 5 5 0 0 0 -10 0 m 0 20 m 0 20 a 5 5 0 0 0 10 0 5 5 0 0 0 -10 0 m 0 20 m 0 20 a 5 5 0 0 0 10 0 5 5 0 0 0 -10 0 m 0 20 m 0 20 a 5 5 0 0 0 10 0 5 5 0 0 0 -10 0 m 0 20 m 0 20 a 5 5 0 0 0 10 0 5 5 0 0 0 -10 0" transform="rotate(-64.28571428571428) translate(0 120) rotate(51.42857142857143) translate(0 120) rotate(51.42857142857143) translate(0 80) rotate(97.17)"></path>
  </g>
 </g>
</svg>