<svg xmlns="http://www.w3.org/2000/svg" width="440" height="440" style="border:1px solid gray;">
 <g id="heptagon" transform="translate(220,20) scale(1 1)">
  <g fill="rgba(255,127,0,128)" stroke="black">
   <path id="p20a" d="m -4.5 0 a 4.5 4.5 0 0 1 9 0 l 0 180 a 4.5 4.5 0 0 1 -9 0 l 0 -180 z m 2.25 -9 m 0 9 a 2.25 2.25 0 0 0 4.5 0 2.25 2.25 0 0 0 -4.5 0 m 0 9 a 2.25 2.25 0 0 0 4.5 0 2.25 2.25 0 0 0 -4.5 0 m 0 9 a 2.25 2.25 0 0 0 4.5 0 2.25 2.25 0 0 0 -4.5 0 m 0 9 a 2.25 2.25 0 0 0 4.5 0 2.25 2.25 0 0 0 -4.5 0 m 0 9 a 2.25 2.25 0 0 0 4.5 0 2.25 2.25 0 0 0 -4.5 0 m 0 9 a 2.25 2.25 0 0 0 4.5 0 2.25 2.25 0 0 0 -4.5 0 m 0 9 a 2.25 2.25 0 0 0 4.5 0 2.25 2.25 0 0 0 -4.5 0 m 0 9 a 2.25 2.25 0 0 0 4.5 0 2.25 2.25 0 0 0 -4.5 0 m 0 9 a 2.25 2.25 0 0 0 4.5 0 2.25 2.25 0 0 0 -4.5 0 m 0 9 a 2.25 2.25 0 0 0 4.5 0 2.25 2.25 0 0 0 -4.5 0 m 0 9 a 2.25 2.25 0 0 0 4.5 0 2.25 2.25 0 0 0 -4.5 0 m 0 9 a 2.25 2.25 0 0 0 4.5 0 2.25 2.25 0 0 0 -4.5 0 m 0 9 a 2.25 2.25 0 0 0 4.5 0 2.25 2.25 0 0 0 -4.5 0 m 0 9 a 2.25 2.25 0 0 0 4.5 0 2.25 2.25 0 0 0 -4.5 0 m 0 9 a 2.25 2.25 0 0 0 4.5 0 2.25 2.25 0 0 0 -4.5 0 m 0 9 a 2.25 2.25 0 0 0 4.5 0 2.25 2.25 0 0 0 -4.5 0 m 0 9 a 2.25 2.25 0 0 0 4.5 0 2.25 2.25 0 0 0 -4.5 0 m 0 9 a 2.25 2.25 0 0 0 4.5 0 2.25 2.25 0 0 0 -4.5 0 m 0 9 a 2.25 2.25 0 0 0 4.5 0 2.25 2.25 0 0 0 -4.5 0 m 0 9 a 2.25 2.25 0 0 0 4.5 0 2.25 2.25 0 0 0 -4.5 0 m 0 9 a 2.25 2.25 0 0 0 4.5 0 2.25 2.25 0 0 0 -4.5 0" transform="rotate(64.15806723683288)"></path>
   <path id="p20b" d="m -4.5 0 a 4.5 4.5 0 0 1 9 0 l 0 180 a 4.5 4.5 0 0 1 -9 0 l 0 -180 z m 2.25 -9 m 0 9 a 2.25 2.25 0 0 0 4.5 0 2.25 2.25 0 0 0 -4.5 0 m 0 9 a 2.25 2.25 0 0 0 4.5 0 2.25 2.25 0 0 0 -4.5 0 m 0 9 a 2.25 2.25 0 0 0 4.5 0 2.25 2.25 0 0 0 -4.5 0 m 0 9 a 2.25 2.25 0 0 0 4.5 0 2.25 2.25 0 0 0 -4.5 0 m 0 9 a 2.25 2.25 0 0 0 4.5 0 2.25 2.25 0 0 0 -4.5 0 m 0 9 a 2.25 2.25 0 0 0 4.5 0 2.25 2.25 0 0 0 -4.5 0 m 0 9 a 2.25 2.25 0 0 0 4.5 0 2.25 2.25 0 0 0 -4.5 0 m 0 9 a 2.25 2.25 0 0 0 4.5 0 2.25 2.25 0 0 0 -4.5 0 m 0 9 a 2.25 2.25 0 0 0 4.5 0 2.25 2.25 0 0 0 -4.5 0 m 0 9 a 2.25 2.25 0 0 0 4.5 0 2.25 2.25 0 0 0 -4.5 0 m 0 9 a 2.25 2.25 0 0 0 4.5 0 2.25 2.25 0 0 0 -4.5 0 m 0 9 a 2.25 2.25 0 0 0 4.5 0 2.25 2.25 0 0 0 -4.5 0 m 0 9 a 2.25 2.25 0 0 0 4.5 0 2.25 2.25 0 0 0 -4.5 0 m 0 9 a 2.25 2.25 0 0 0 4.5 0 2.25 2.25 0 0 0 -4.5 0 m 0 9 a 2.25 2.25 0 0 0 4.5 0 2.25 2.25 0 0 0 -4.5 0 m 0 9 a 2.25 2.25 0 0 0 4.5 0 2.25 2.25 0 0 0 -4.5 0 m 0 9 a 2.25 2.25 0 0 0 4.5 0 2.25 2.25 0 0 0 -4.5 0 m 0 9 a 2.25 2.25 0 0 0 4.5 0 2.25 2.25 0 0 0 -4.5 0 m 0 9 a 2.25 2.25 0 0 0 4.5 0 2.25 2.25 0 0 0 -4.5 0 m 0 9 a 2.25 2.25 0 0 0 4.5 0 2.25 2.25 0 0 0 -4.5 0 m 0 9 a 2.25 2.25 0 0 0 4.5 0 2.25 2.25 0 0 0 -4.5 0" transform="rotate(64.15806723683288) translate(0 180) rotate(308.6400154870312)"></path>
   <path id="p20c" d="m -4.5 0 a 4.5 4.5 0 0 1 9 0 l 0 180 a 4.5 4.5 0 0 1 -9 0 l 0 -180 z m 2.25 -9 m 0 9 a 2.25 2.25 0 0 0 4.5 0 2.25 2.25 0 0 0 -4.5 0 m 0 9 a 2.25 2.25 0 0 0 4.5 0 2.25 2.25 0 0 0 -4.5 0 m 0 9 a 2.25 2.25 0 0 0 4.5 0 2.25 2.25 0 0 0 -4.5 0 m 0 9 a 2.25 2.25 0 0 0 4.5 0 2.25 2.25 0 0 0 -4.5 0 m 0 9 a 2.25 2.25 0 0 0 4.5 0 2.25 2.25 0 0 0 -4.5 0 m 0 9 a 2.25 2.25 0 0 0 4.5 0 2.25 2.25 0 0 0 -4.5 0 m 0 9 a 2.25 2.25 0 0 0 4.5 0 2.25 2.25 0 0 0 -4.5 0 m 0 9 a 2.25 2.25 0 0 0 4.5 0 2.25 2.25 0 0 0 -4.5 0 m 0 9 a 2.25 2.25 0 0 0 4.5 0 2.25 2.25 0 0 0 -4.5 0 m 0 9 a 2.25 2.25 0 0 0 4.5 0 2.25 2.25 0 0 0 -4.5 0 m 0 9 a 2.25 2.25 0 0 0 4.5 0 2.25 2.25 0 0 0 -4.5 0 m 0 9 a 2.25 2.25 0 0 0 4.5 0 2.25 2.25 0 0 0 -4.5 0 m 0 9 a 2.25 2.25 0 0 0 4.5 0 2.25 2.25 0 0 0 -4.5 0 m 0 9 a 2.25 2.25 0 0 0 4.5 0 2.25 2.25 0 0 0 -4.5 0 m 0 9 a 2.25 2.25 0 0 0 4.5 0 2.25 2.25 0 0 0 -4.5 0 m 0 9 a 2.25 2.25 0 0 0 4.5 0 2.25 2.25 0 0 0 -4.5 0 m 0 9 a 2.25 2.25 0 0 0 4.5 0 2.25 2.25 0 0 0 -4.5 0 m 0 9 a 2.25 2.25 0 0 0 4.5 0 2.25 2.25 0 0 0 -4.5 0 m 0 9 a 2.25 2.25 0 0 0 4.5 0 2.25 2.25 0 0 0 -4.5 0 m 0 9 a 2.25 2.25 0 0 0 4.5 0 2.25 2.25 0 0 0 -4.5 0 m 0 9 a 2.25 2.25 0 0 0 4.5 0 2.25 2.25 0 0 0 -4.5 0" transform="rotate(64.15806723683288) translate(0 180) rotate(308.6400154870312) translate(0 180) rotate(308.3161344736658)"></path>
   <path id="p20d" d="m -4.5 0 a 4.5 4.5 0 0 1 9 0 l 0 180 a 4.5 4.5 0 0 1 -9 0 l 0 -180 z m 2.25 -9 m 0 9 a 2.25 2.25 0 0 0 4.5 0 2.25 2.25 0 0 0 -4.5 0 m 0 9 a 2.25 2.25 0 0 0 4.5 0 2.25 2.25 0 0 0 -4.5 0 m 0 9 a 2.25 2.25 0 0 0 4.5 0 2.25 2.25 0 0 0 -4.5 0 m 0 9 a 2.25 2.25 0 0 0 4.5 0 2.25 2.25 0 0 0 -4.5 0 m 0 9 a 2.25 2.25 0 0 0 4.5 0 2.25 2.25 0 0 0 -4.5 0 m 0 9 a 2.25 2.25 0 0 0 4.5 0 2.25 2.25 0 0 0 -4.5 0 m 0 9 a 2.25 2.25 0 0 0 4.5 0 2.25 2.25 0 0 0 -4.5 0 m 0 9 a 2.25 2.25 0 0 0 4.5 0 2.25 2.25 0 0 0 -4.5 0 m 0 9 a 2.25 2.25 0 0 0 4.5 0 2.25 2.25 0 0 0 -4.5 0 m 0 9 a 2.25 2.25 0 0 0 4.5 0 2.25 2.25 0 0 0 -4.5 0 m 0 9 a 2.25 2.25 0 0 0 4.5 0 2.25 2.25 0 0 0 -4.5 0 m 0 9 a 2.25 2.25 0 0 0 4.5 0 2.25 2.25 0 0 0 -4.5 0 m 0 9 a 2.25 2.25 0 0 0 4.5 0 2.25 2.25 0 0 0 -4.5 0 m 0 9 a 2.25 2.25 0 0 0 4.5 0 2.25 2.25 0 0 0 -4.5 0 m 0 9 a 2.25 2.25 0 0 0 4.5 0 2.25 2.25 0 0 0 -4.5 0 m 0 9 a 2.25 2.25 0 0 0 4.5 0 2.25 2.25 0 0 0 -4.5 0 m 0 9 a 2.25 2.25 0 0 0 4.5 0 2.25 2.25 0 0 0 -4.5 0 m 0 9 a 2.25 2.25 0 0 0 4.5 0 2.25 2.25 0 0 0 -4.5 0 m 0 9 a 2.25 2.25 0 0 0 4.5 0 2.25 2.25 0 0 0 -4.5 0 m 0 9 a 2.25 2.25 0 0 0 4.5 0 2.25 2.25 0 0 0 -4.5 0 m 0 9 a 2.25 2.25 0 0 0 4.5 0 2.25 2.25 0 0 0 -4.5 0" transform="rotate(64.15806723683288) translate(0 180) rotate(282.79808272386407) translate(0 324) rotate(283.2071417585819)"></path>
   <path id="p20e" d="m -4.5 0 a 4.5 4.5 0 0 1 9 0 l 0 180 a 4.5 4.5 0 0 1 -9 0 l 0 -180 z m 2.25 -9 m 0 9 a 2.25 2.25 0 0 0 4.5 0 2.25 2.25 0 0 0 -4.5 0 m 0 9 a 2.25 2.25 0 0 0 4.5 0 2.25 2.25 0 0 0 -4.5 0 m 0 9 a 2.25 2.25 0 0 0 4.5 0 2.25 2.25 0 0 0 -4.5 0 m 0 9 a 2.25 2.25 0 0 0 4.5 0 2.25 2.25 0 0 0 -4.5 0 m 0 9 a 2.25 2.25 0 0 0 4.5 0 2.25 2.25 0 0 0 -4.5 0 m 0 9 a 2.25 2.25 0 0 0 4.5 0 2.25 2.25 0 0 0 -4.5 0 m 0 9 a 2.25 2.25 0 0 0 4.5 0 2.25 2.25 0 0 0 -4.5 0 m 0 9 a 2.25 2.25 0 0 0 4.5 0 2.25 2.25 0 0 0 -4.5 0 m 0 9 a 2.25 2.25 0 0 0 4.5 0 2.25 2.25 0 0 0 -4.5 0 m 0 9 a 2.25 2.25 0 0 0 4.5 0 2.25 2.25 0 0 0 -4.5 0 m 0 9 a 2.25 2.25 0 0 0 4.5 0 2.25 2.25 0 0 0 -4.5 0 m 0 9 a 2.25 2.25 0 0 0 4.5 0 2.25 2.25 0 0 0 -4.5 0 m 0 9 a 2.25 2.25 0 0 0 4.5 0 2.25 2.25 0 0 0 -4.5 0 m 0 9 a 2.25 2.25 0 0 0 4.5 0 2.25 2.25 0 0 0 -4.5 0 m 0 9 a 2.25 2.25 0 0 0 4.5 0 2.25 2.25 0 0 0 -4.5 0 m 0 9 a 2.25 2.25 0 0 0 4.5 0 2.25 2.25 0 0 0 -4.5 0 m 0 9 a 2.25 2.25 0 0 0 4.5 0 2.25 2.25 0 0 0 -4.5 0 m 0 9 a 2.25 2.25 0 0 0 4.5 0 2.25 2.25 0 0 0 -4.5 0 m 0 9 a 2.25 2.25 0 0 0 4.5 0 2.25 2.25 0 0 0 -4.5 0 m 0 9 a 2.25 2.25 0 0 0 4.5 0 2.25 2.25 0 0 0 -4.5 0 m 0 9 a 2.25 2.25 0 0 0 4.5 0 2.25 2.25 0 0 0 -4.5 0" transform="rotate(-64.15806723683288)"></path>
   <path id="p20f" d="m -4.5 0 a 4.5 4.5 0 0 1 9 0 l 0 180 a 4.5 4.5 0 0 1 -9 0 l 0 -180 z m 2.25 -9 m 0 9 a 2.25 2.25 0 0 0 4.5 0 2.25 2.25 0 0 0 -4.5 0 m 0 9 a 2.25 2.25 0 0 0 4.5 0 2.25 2.25 0 0 0 -4.5 0 m 0 9 a 2.25 2.25 0 0 0 4.5 0 2.25 2.25 0 0 0 -4.5 0 m 0 9 a 2.25 2.25 0 0 0 4.5 0 2.25 2.25 0 0 0 -4.5 0 m 0 9 a 2.25 2.25 0 0 0 4.5 0 2.25 2.25 0 0 0 -4.5 0 m 0 9 a 2.25 2.25 0 0 0 4.5 0 2.25 2.25 0 0 0 -4.5 0 m 0 9 a 2.25 2.25 0 0 0 4.5 0 2.25 2.25 0 0 0 -4.5 0 m 0 9 a 2.25 2.25 0 0 0 4.5 0 2.25 2.25 0 0 0 -4.5 0 m 0 9 a 2.25 2.25 0 0 0 4.5 0 2.25 2.25 0 0 0 -4.5 0 m 0 9 a 2.25 2.25 0 0 0 4.5 0 2.25 2.25 0 0 0 -4.5 0 m 0 9 a 2.25 2.25 0 0 0 4.5 0 2.25 2.25 0 0 0 -4.5 0 m 0 9 a 2.25 2.25 0 0 0 4.5 0 2.25 2.25 0 0 0 -4.5 0 m 0 9 a 2.25 2.25 0 0 0 4.5 0 2.25 2.25 0 0 0 -4.5 0 m 0 9 a 2.25 2.25 0 0 0 4.5 0 2.25 2.25 0 0 0 -4.5 0 m 0 9 a 2.25 2.25 0 0 0 4.5 0 2.25 2.25 0 0 0 -4.5 0 m 0 9 a 2.25 2.25 0 0 0 4.5 0 2.25 2.25 0 0 0 -4.5 0 m 0 9 a 2.25 2.25 0 0 0 4.5 0 2.25 2.25 0 0 0 -4.5 0 m 0 9 a 2.25 2.25 0 0 0 4.5 0 2.25 2.25 0 0 0 -4.5 0 m 0 9 a 2.25 2.25 0 0 0 4.5 0 2.25 2.25 0 0 0 -4.5 0 m 0 9 a 2.25 2.25 0 0 0 4.5 0 2.25 2.25 0 0 0 -4.5 0 m 0 9 a 2.25 2.25 0 0 0 4.5 0 2.25 2.25 0 0 0 -4.5 0" transform="rotate(-64.15806723683288) translate(0 180) rotate(50.95175956668686)"></path>
   <path id="p20g" d="m -4.5 0 a 4.5 4.5 0 0 1 9 0 l 0 180 a 4.5 4.5 0 0 1 -9 0 l 0 -180 z m 2.25 -9 m 0 9 a 2.25 2.25 0 0 0 4.5 0 2.25 2.25 0 0 0 -4.5 0 m 0 9 a 2.25 2.25 0 0 0 4.5 0 2.25 2.25 0 0 0 -4.5 0 m 0 9 a 2.25 2.25 0 0 0 4.5 0 2.25 2.25 0 0 0 -4.5 0 m 0 9 a 2.25 2.25 0 0 0 4.5 0 2.25 2.25 0 0 0 -4.5 0 m 0 9 a 2.25 2.25 0 0 0 4.5 0 2.25 2.25 0 0 0 -4.5 0 m 0 9 a 2.25 2.25 0 0 0 4.5 0 2.25 2.25 0 0 0 -4.5 0 m 0 9 a 2.25 2.25 0 0 0 4.5 0 2.25 2.25 0 0 0 -4.5 0 m 0 9 a 2.25 2.25 0 0 0 4.5 0 2.25 2.25 0 0 0 -4.5 0 m 0 9 a 2.25 2.25 0 0 0 4.5 0 2.25 2.25 0 0 0 -4.5 0 m 0 9 a 2.25 2.25 0 0 0 4.5 0 2.25 2.25 0 0 0 -4.5 0 m 0 9 a 2.25 2.25 0 0 0 4.5 0 2.25 2.25 0 0 0 -4.5 0 m 0 9 a 2.25 2.25 0 0 0 4.5 0 2.25 2.25 0 0 0 -4.5 0 m 0 9 a 2.25 2.25 0 0 0 4.5 0 2.25 2.25 0 0 0 -4.5 0 m 0 9 a 2.25 2.25 0 0 0 4.5 0 2.25 2.25 0 0 0 -4.5 0 m 0 9 a 2.25 2.25 0 0 0 4.5 0 2.25 2.25 0 0 0 -4.5 0 m 0 9 a 2.25 2.25 0 0 0 4.5 0 2.25 2.25 0 0 0 -4.5 0 m 0 9 a 2.25 2.25 0 0 0 4.5 0 2.25 2.25 0 0 0 -4.5 0 m 0 9 a 2.25 2.25 0 0 0 4.5 0 2.25 2.25 0 0 0 -4.5 0 m 0 9 a 2.25 2.25 0 0 0 4.5 0 2.25 2.25 0 0 0 -4.5 0 m 0 9 a 2.25 2.25 0 0 0 4.5 0 2.25 2.25 0 0 0 -4.5 0 m 0 9 a 2.25 2.25 0 0 0 4.5 0 2.25 2.25 0 0 0 -4.5 0" transform="rotate(-64.15806723683288) translate(0 180) rotate(50.95175956668686) translate(0 180) rotate(51.683865526334245)"></path>
  </g>
  <g fill="rgba(0,128,255,128)" stroke="black">
   <path id="p36a" d="m -4.5 0 a 4.5 4.5 0 0 1 9 0 l 0 324 a 4.5 4.5 0 0 1 -9 0 l 0 -324 z m 2.25 -9 m 0 9 a 2.25 2.25 0 0 0 4.5 0 2.25 2.25 0 0 0 -4.5 0 m 0 9 a 2.25 2.25 0 0 0 4.5 0 2.25 2.25 0 0 0 -4.5 0 m 0 9 a 2.25 2.25 0 0 0 4.5 0 2.25 2.25 0 0 0 -4.5 0 m 0 9 a 2.25 2.25 0 0 0 4.5 0 2.25 2.25 0 0 0 -4.5 0 m 0 9 a 2.25 2.25 0 0 0 4.5 0 2.25 2.25 0 0 0 -4.5 0 m 0 9 a 2.25 2.25 0 0 0 4.5 0 2.25 2.25 0 0 0 -4.5 0 m 0 9 a 2.25 2.25 0 0 0 4.5 0 2.25 2.25 0 0 0 -4.5 0 m 0 9 a 2.25 2.25 0 0 0 4.5 0 2.25 2.25 0 0 0 -4.5 0 m 0 9 a 2.25 2.25 0 0 0 4.5 0 2.25 2.25 0 0 0 -4.5 0 m 0 9 a 2.25 2.25 0 0 0 4.5 0 2.25 2.25 0 0 0 -4.5 0 m 0 9 a 2.25 2.25 0 0 0 4.5 0 2.25 2.25 0 0 0 -4.5 0 m 0 9 a 2.25 2.25 0 0 0 4.5 0 2.25 2.25 0 0 0 -4.5 0 m 0 9 a 2.25 2.25 0 0 0 4.5 0 2.25 2.25 0 0 0 -4.5 0 m 0 9 a 2.25 2.25 0 0 0 4.5 0 2.25 2.25 0 0 0 -4.5 0 m 0 9 a 2.25 2.25 0 0 0 4.5 0 2.25 2.25 0 0 0 -4.5 0 m 0 9 a 2.25 2.25 0 0 0 4.5 0 2.25 2.25 0 0 0 -4.5 0 m 0 9 a 2.25 2.25 0 0 0 4.5 0 2.25 2.25 0 0 0 -4.5 0 m 0 9 a 2.25 2.25 0 0 0 4.5 0 2.25 2.25 0 0 0 -4.5 0 m 0 9 a 2.25 2.25 0 0 0 4.5 0 2.25 2.25 0 0 0 -4.5 0 m 0 9 a 2.25 2.25 0 0 0 4.5 0 2.25 2.25 0 0 0 -4.5 0 m 0 9 a 2.25 2.25 0 0 0 4.5 0 2.25 2.25 0 0 0 -4.5 0 m 0 9 a 2.25 2.25 0 0 0 4.5 0 2.25 2.25 0 0 0 -4.5 0 m 0 9 a 2.25 2.25 0 0 0 4.5 0 2.25 2.25 0 0 0 -4.5 0 m 0 9 a 2.25 2.25 0 0 0 4.5 0 2.25 2.25 0 0 0 -4.5 0 m 0 9 a 2.25 2.25 0 0 0 4.5 0 2.25 2.25 0 0 0 -4.5 0 m 0 9 a 2.25 2.25 0 0 0 4.5 0 2.25 2.25 0 0 0 -4.5 0 m 0 9 a 2.25 2.25 0 0 0 4.5 0 2.25 2.25 0 0 0 -4.5 0 m 0 9 a 2.25 2.25 0 0 0 4.5 0 2.25 2.25 0 0 0 -4.5 0 m 0 9 a 2.25 2.25 0 0 0 4.5 0 2.25 2.25 0 0 0 -4.5 0 m 0 9 a 2.25 2.25 0 0 0 4.5 0 2.25 2.25 0 0 0 -4.5 0 m 0 9 a 2.25 2.25 0 0 0 4.5 0 2.25 2.25 0 0 0 -4.5 0 m 0 9 a 2.25 2.25 0 0 0 4.5 0 2.25 2.25 0 0 0 -4.5 0 m 0 9 a 2.25 2.25 0 0 0 4.5 0 2.25 2.25 0 0 0 -4.5 0 m 0 9 a 2.25 2.25 0 0 0 4.5 0 2.25 2.25 0 0 0 -4.5 0 m 0 9 a 2.25 2.25 0 0 0 4.5 0 2.25 2.25 0 0 0 -4.5 0 m 0 9 a 2.25 2.25 0 0 0 4.5 0 2.25 2.25 0 0 0 -4.5 0 m 0 9 a 2.25 2.25 0 0 0 4.5 0 2.25 2.25 0 0 0 -4.5 0" transform="rotate(64.15806723683288) translate(0 180) rotate(205.84193276316714)"></path>
   <path id="p36b" d="m -4.5 0 a 4.5 4.5 0 0 1 9 0 l 0 324 a 4.5 4.5 0 0 1 -9 0 l 0 -324 z m 2.25 -9 m 0 9 a 2.25 2.25 0 0 0 4.5 0 2.25 2.25 0 0 0 -4.5 0 m 0 9 a 2.25 2.25 0 0 0 4.5 0 2.25 2.25 0 0 0 -4.5 0 m 0 9 a 2.25 2.25 0 0 0 4.5 0 2.25 2.25 0 0 0 -4.5 0 m 0 9 a 2.25 2.25 0 0 0 4.5 0 2.25 2.25 0 0 0 -4.5 0 m 0 9 a 2.25 2.25 0 0 0 4.5 0 2.25 2.25 0 0 0 -4.5 0 m 0 9 a 2.25 2.25 0 0 0 4.5 0 2.25 2.25 0 0 0 -4.5 0 m 0 9 a 2.25 2.25 0 0 0 4.5 0 2.25 2.25 0 0 0 -4.5 0 m 0 9 a 2.25 2.25 0 0 0 4.5 0 2.25 2.25 0 0 0 -4.5 0 m 0 9 a 2.25 2.25 0 0 0 4.5 0 2.25 2.25 0 0 0 -4.5 0 m 0 9 a 2.25 2.25 0 0 0 4.5 0 2.25 2.25 0 0 0 -4.5 0 m 0 9 a 2.25 2.25 0 0 0 4.5 0 2.25 2.25 0 0 0 -4.5 0 m 0 9 a 2.25 2.25 0 0 0 4.5 0 2.25 2.25 0 0 0 -4.5 0 m 0 9 a 2.25 2.25 0 0 0 4.5 0 2.25 2.25 0 0 0 -4.5 0 m 0 9 a 2.25 2.25 0 0 0 4.5 0 2.25 2.25 0 0 0 -4.5 0 m 0 9 a 2.25 2.25 0 0 0 4.5 0 2.25 2.25 0 0 0 -4.5 0 m 0 9 a 2.25 2.25 0 0 0 4.5 0 2.25 2.25 0 0 0 -4.5 0 m 0 9 a 2.25 2.25 0 0 0 4.5 0 2.25 2.25 0 0 0 -4.5 0 m 0 9 a 2.25 2.25 0 0 0 4.5 0 2.25 2.25 0 0 0 -4.5 0 m 0 9 a 2.25 2.25 0 0 0 4.5 0 2.25 2.25 0 0 0 -4.5 0 m 0 9 a 2.25 2.25 0 0 0 4.5 0 2.25 2.25 0 0 0 -4.5 0 m 0 9 a 2.25 2.25 0 0 0 4.5 0 2.25 2.25 0 0 0 -4.5 0 m 0 9 a 2.25 2.25 0 0 0 4.5 0 2.25 2.25 0 0 0 -4.5 0 m 0 9 a 2.25 2.25 0 0 0 4.5 0 2.25 2.25 0 0 0 -4.5 0 m 0 9 a 2.25 2.25 0 0 0 4.5 0 2.25 2.25 0 0 0 -4.5 0 m 0 9 a 2.25 2.25 0 0 0 4.5 0 2.25 2.25 0 0 0 -4.5 0 m 0 9 a 2.25 2.25 0 0 0 4.5 0 2.25 2.25 0 0 0 -4.5 0 m 0 9 a 2.25 2.25 0 0 0 4.5 0 2.25 2.25 0 0 0 -4.5 0 m 0 9 a 2.25 2.25 0 0 0 4.5 0 2.25 2.25 0 0 0 -4.5 0 m 0 9 a 2.25 2.25 0 0 0 4.5 0 2.25 2.25 0 0 0 -4.5 0 m 0 9 a 2.25 2.25 0 0 0 4.5 0 2.25 2.25 0 0 0 -4.5 0 m 0 9 a 2.25 2.25 0 0 0 4.5 0 2.25 2.25 0 0 0 -4.5 0 m 0 9 a 2.25 2.25 0 0 0 4.5 0 2.25 2.25 0 0 0 -4.5 0 m 0 9 a 2.25 2.25 0 0 0 4.5 0 2.25 2.25 0 0 0 -4.5 0 m 0 9 a 2.25 2.25 0 0 0 4.5 0 2.25 2.25 0 0 0 -4.5 0 m 0 9 a 2.25 2.25 0 0 0 4.5 0 2.25 2.25 0 0 0 -4.5 0 m 0 9 a 2.25 2.25 0 0 0 4.5 0 2.25 2.25 0 0 0 -4.5 0 m 0 9 a 2.25 2.25 0 0 0 4.5 0 2.25 2.25 0 0 0 -4.5 0" transform="rotate(64.15806723683288) translate(0 180) rotate(282.79808272386407)"></path>
   <path id="p36c" d="m -4.5 0 a 4.5 4.5 0 0 1 9 0 l 0 324 a 4.5 4.5 0 0 1 -9 0 l 0 -324 z m 2.25 -9 m 0 9 a 2.25 2.25 0 0 0 4.5 0 2.25 2.25 0 0 0 -4.5 0 m 0 9 a 2.25 2.25 0 0 0 4.5 0 2.25 2.25 0 0 0 -4.5 0 m 0 9 a 2.25 2.25 0 0 0 4.5 0 2.25 2.25 0 0 0 -4.5 0 m 0 9 a 2.25 2.25 0 0 0 4.5 0 2.25 2.25 0 0 0 -4.5 0 m 0 9 a 2.25 2.25 0 0 0 4.5 0 2.25 2.25 0 0 0 -4.5 0 m 0 9 a 2.25 2.25 0 0 0 4.5 0 2.25 2.25 0 0 0 -4.5 0 m 0 9 a 2.25 2.25 0 0 0 4.5 0 2.25 2.25 0 0 0 -4.5 0 m 0 9 a 2.25 2.25 0 0 0 4.5 0 2.25 2.25 0 0 0 -4.5 0 m 0 9 a 2.25 2.25 0 0 0 4.5 0 2.25 2.25 0 0 0 -4.5 0 m 0 9 a 2.25 2.25 0 0 0 4.5 0 2.25 2.25 0 0 0 -4.5 0 m 0 9 a 2.25 2.25 0 0 0 4.5 0 2.25 2.25 0 0 0 -4.5 0 m 0 9 a 2.25 2.25 0 0 0 4.5 0 2.25 2.25 0 0 0 -4.5 0 m 0 9 a 2.25 2.25 0 0 0 4.5 0 2.25 2.25 0 0 0 -4.5 0 m 0 9 a 2.25 2.25 0 0 0 4.5 0 2.25 2.25 0 0 0 -4.5 0 m 0 9 a 2.25 2.25 0 0 0 4.5 0 2.25 2.25 0 0 0 -4.5 0 m 0 9 a 2.25 2.25 0 0 0 4.5 0 2.25 2.25 0 0 0 -4.5 0 m 0 9 a 2.25 2.25 0 0 0 4.5 0 2.25 2.25 0 0 0 -4.5 0 m 0 9 a 2.25 2.25 0 0 0 4.5 0 2.25 2.25 0 0 0 -4.5 0 m 0 9 a 2.25 2.25 0 0 0 4.5 0 2.25 2.25 0 0 0 -4.5 0 m 0 9 a 2.25 2.25 0 0 0 4.5 0 2.25 2.25 0 0 0 -4.5 0 m 0 9 a 2.25 2.25 0 0 0 4.5 0 2.25 2.25 0 0 0 -4.5 0 m 0 9 a 2.25 2.25 0 0 0 4.5 0 2.25 2.25 0 0 0 -4.5 0 m 0 9 a 2.25 2.25 0 0 0 4.5 0 2.25 2.25 0 0 0 -4.5 0 m 0 9 a 2.25 2.25 0 0 0 4.5 0 2.25 2.25 0 0 0 -4.5 0 m 0 9 a 2.25 2.25 0 0 0 4.5 0 2.25 2.25 0 0 0 -4.5 0 m 0 9 a 2.25 2.25 0 0 0 4.5 0 2.25 2.25 0 0 0 -4.5 0 m 0 9 a 2.25 2.25 0 0 0 4.5 0 2.25 2.25 0 0 0 -4.5 0 m 0 9 a 2.25 2.25 0 0 0 4.5 0 2.25 2.25 0 0 0 -4.5 0 m 0 9 a 2.25 2.25 0 0 0 4.5 0 2.25 2.25 0 0 0 -4.5 0 m 0 9 a 2.25 2.25 0 0 0 4.5 0 2.25 2.25 0 0 0 -4.5 0 m 0 9 a 2.25 2.25 0 0 0 4.5 0 2.25 2.25 0 0 0 -4.5 0 m 0 9 a 2.25 2.25 0 0 0 4.5 0 2.25 2.25 0 0 0 -4.5 0 m 0 9 a 2.25 2.25 0 0 0 4.5 0 2.25 2.25 0 0 0 -4.5 0 m 0 9 a 2.25 2.25 0 0 0 4.5 0 2.25 2.25 0 0 0 -4.5 0 m 0 9 a 2.25 2.25 0 0 0 4.5 0 2.25 2.25 0 0 0 -4.5 0 m 0 9 a 2.25 2.25 0 0 0 4.5 0 2.25 2.25 0 0 0 -4.5 0 m 0 9 a 2.25 2.25 0 0 0 4.5 0 2.25 2.25 0 0 0 -4.5 0" transform="rotate(-64.15806723683288) translate(0 180) rotate(76.79369232985398)"></path>
  </g>
  <g fill="rgba(0,255,128,128)" stroke="black">
   <path id="p45a" d="m -4.5 0 a 4.5 4.5 0 0 1 9 0 l 0 405 a 4.5 4.5 0 0 1 -9 0 l 0 -405 z m 2.25 -9 m 0 9 a 2.25 2.25 0 0 0 4.5 0 2.25 2.25 0 0 0 -4.5 0 m 0 9 a 2.25 2.25 0 0 0 4.5 0 2.25 2.25 0 0 0 -4.5 0 m 0 9 a 2.25 2.25 0 0 0 4.5 0 2.25 2.25 0 0 0 -4.5 0 m 0 9 a 2.25 2.25 0 0 0 4.5 0 2.25 2.25 0 0 0 -4.5 0 m 0 9 a 2.25 2.25 0 0 0 4.5 0 2.25 2.25 0 0 0 -4.5 0 m 0 9 a 2.25 2.25 0 0 0 4.5 0 2.25 2.25 0 0 0 -4.5 0 m 0 9 a 2.25 2.25 0 0 0 4.5 0 2.25 2.25 0 0 0 -4.5 0 m 0 9 a 2.25 2.25 0 0 0 4.5 0 2.25 2.25 0 0 0 -4.5 0 m 0 9 a 2.25 2.25 0 0 0 4.5 0 2.25 2.25 0 0 0 -4.5 0 m 0 9 a 2.25 2.25 0 0 0 4.5 0 2.25 2.25 0 0 0 -4.5 0 m 0 9 a 2.25 2.25 0 0 0 4.5 0 2.25 2.25 0 0 0 -4.5 0 m 0 9 a 2.25 2.25 0 0 0 4.5 0 2.25 2.25 0 0 0 -4.5 0 m 0 9 a 2.25 2.25 0 0 0 4.5 0 2.25 2.25 0 0 0 -4.5 0 m 0 9 a 2.25 2.25 0 0 0 4.5 0 2.25 2.25 0 0 0 -4.5 0 m 0 9 a 2.25 2.25 0 0 0 4.5 0 2.25 2.25 0 0 0 -4.5 0 m 0 9 a 2.25 2.25 0 0 0 4.5 0 2.25 2.25 0 0 0 -4.5 0 m 0 9 a 2.25 2.25 0 0 0 4.5 0 2.25 2.25 0 0 0 -4.5 0 m 0 9 a 2.25 2.25 0 0 0 4.5 0 2.25 2.25 0 0 0 -4.5 0 m 0 9 a 2.25 2.25 0 0 0 4.5 0 2.25 2.25 0 0 0 -4.5 0 m 0 9 a 2.25 2.25 0 0 0 4.5 0 2.25 2.25 0 0 0 -4.5 0 m 0 9 a 2.25 2.25 0 0 0 4.5 0 2.25 2.25 0 0 0 -4.5 0 m 0 9 a 2.25 2.25 0 0 0 4.5 0 2.25 2.25 0 0 0 -4.5 0 m 0 9 a 2.25 2.25 0 0 0 4.5 0 2.25 2.25 0 0 0 -4.5 0 m 0 9 a 2.25 2.25 0 0 0 4.5 0 2.25 2.25 0 0 0 -4.5 0 m 0 9 a 2.25 2.25 0 0 0 4.5 0 2.25 2.25 0 0 0 -4.5 0 m 0 9 a 2.25 2.25 0 0 0 4.5 0 2.25 2.25 0 0 0 -4.5 0 m 0 9 a 2.25 2.25 0 0 0 4.5 0 2.25 2.25 0 0 0 -4.5 0 m 0 9 a 2.25 2.25 0 0 0 4.5 0 2.25 2.25 0 0 0 -4.5 0 m 0 9 a 2.25 2.25 0 0 0 4.5 0 2.25 2.25 0 0 0 -4.5 0 m 0 9 a 2.25 2.25 0 0 0 4.5 0 2.25 2.25 0 0 0 -4.5 0 m 0 9 a 2.25 2.25 0 0 0 4.5 0 2.25 2.25 0 0 0 -4.5 0 m 0 9 a 2.25 2.25 0 0 0 4.5 0 2.25 2.25 0 0 0 -4.5 0 m 0 9 a 2.25 2.25 0 0 0 4.5 0 2.25 2.25 0 0 0 -4.5 0 m 0 9 a 2.25 2.25 0 0 0 4.5 0 2.25 2.25 0 0 0 -4.5 0 m 0 9 a 2.25 2.25 0 0 0 4.5 0 2.25 2.25 0 0 0 -4.5 0 m 0 9 a 2.25 2.25 0 0 0 4.5 0 2.25 2.25 0 0 0 -4.5 0 m 0 9 a 2.25 2.25 0 0 0 4.5 0 2.25 2.25 0 0 0 -4.5 0 m 0 9 a 2.25 2.25 0 0 0 4.5 0 2.25 2.25 0 0 0 -4.5 0 m 0 9 a 2.25 2.25 0 0 0 4.5 0 2.25 2.25 0 0 0 -4.5 0 m 0 9 a 2.25 2.25 0 0 0 4.5 0 2.25 2.25 0 0 0 -4.5 0 m 0 9 a 2.25 2.25 0 0 0 4.5 0 2.25 2.25 0 0 0 -4.5 0 m 0 9 a 2.25 2.25 0 0 0 4.5 0 2.25 2.25 0 0 0 -4.5 0 m 0 9 a 2.25 2.25 0 0 0 4.5 0 2.25 2.25 0 0 0 -4.5 0 m 0 9 a 2.25 2.25 0 0 0 4.5 0 2.25 2.25 0 0 0 -4.5 0 m 0 9 a 2.25 2.25 0 0 0 4.5 0 2.25 2.25 0 0 0 -4.5 0 m 0 9 a 2.25 2.25 0 0 0 4.5 0 2.25 2.25 0 0 0 -4.5 0" transform="rotate(64.15806723683288) translate(0 180) rotate(257.1597453096777)"></path>
  </g>
 </g>
</svg>